<?xml version="1.0" encoding="UTF-8"?>
<svg width="900" height="600" xmlns="http://www.w3.org/2000/svg" viewBox="0 0 3 2">
  <rect width="3" height="2" fill="#c60b1e"/>
  <rect width="3" height="1" y="0.5" fill="#ffc400"/>
  <path d="M0.75,1a0.25,0.25 0 1,1 0.5,0a0.25,0.25 0 1,1 -0.5,0" fill="#c60b1e"/>
  <path d="M1,0.65 L0.9,0.8h0.2z M1,0.8 L0.9,0.65h0.2z" fill="#005bbf"/>
  <path d="M1.1,0.8 L1.1,0.95h0.1v-0.15z M0.8,0.8 L0.8,0.95h0.1v-0.15z" fill="#c60b1e"/>
  <path d="M0.9,0.8 L0.9,0.95h0.1v-0.15z M1.2,0.8 L1.2,0.95h0.1v-0.15z" fill="#f1bf00"/>
  <path d="M1.05,0.85 h-0.1v0.05h0.1z" fill="#000000"/>
</svg> 