<?xml version="1.0" encoding="UTF-8"?>
<svg xmlns="http://www.w3.org/2000/svg" id="a" width="981" height="548" viewBox="0 0 981 548">
  <path d="m116.266,128.531c35.493,0,64.265-28.7723,64.265-64.2653S151.759,0,116.266,0,52,28.7727,52,64.2657s28.7727,64.2653,64.266,64.2653Z" style="fill:#f2bc4d;"></path>
  <path d="m786.617,98.4076l-4.22-1.3234c-35.501-11.3651-74.508-2.9018-100.814,23.0408-3.386,3.354-6.547,6.92-9.374,10.729-20.584,27.392-25.97,65.674-13.785,98.09,7.163,19.063,20.076,36.973,19.841,57.27-.312,26.422-22.415,46.419-42.728,63.017-20.312,16.598-42.378,36.685-42.559,63.115-.104,16.542,8.813,32.115,20.391,44.065,30.603,31.666,79.516,41.231,121.753,30.41,42.237-10.821,78.002-39.627,104.509-74.093,37.211-48.275,58.365-110.499,50.668-171.453-7.675-60.974-46.911-119.182-103.682-142.8674Z" style="fill:#6f678e;"></path>
  <path d="m808,515.922c0,.155-180.907.309-403.969.309s-404.031-.185-404.031-.309c0-.123,180.846-.308,404.031-.308s403.969.123,403.969.308Z" style="fill:#263238;"></path>
  <path d="m713.532,41.3258h-398.225v308.2032h398.225V41.3258Z" style="fill:#fff;"></path>
  <path d="m549.053,85.9814h-209.103v179.1786h209.103V85.9814Z" style="fill:#288893;"></path>
  <path d="m549.085,265.16v-12.878c0-8.369,0-20.66-.062-36.318,0-31.283-.092-76.001-.123-129.9826l.2469.2471h-209.103l.309-.3089v179.1784l-.278-.278,151.229.123,42.68.062h15.101-15.071l-42.617.062-151.415.123h-.278V85.4255h209.659v.2471c0,53.9824-.093,98.7924-.124,130.1064,0,15.626,0,27.887-.061,36.256v9.511c0,2.162-.093,3.614-.093,3.614Z" style="fill:#263238;"></path>
  <path d="m387.787,248.792v-8.585c0-5.436,0-13.187-.061-22.452l.123.124h-31.067l.154-.155v31.099l-.123-.124,22.451.062h7.998l-1.698.031h-6.3l-22.482.123h-.124v-31.345h31.222v.124c0,9.326,0,17.077-.062,22.544v8.369c0,.061,0,.123-.031.185Z" style="fill:#fff;"></path>
  <path d="m387.788,248.792l.247-.154.71-.464,2.748-1.729,10.099-6.3-.062.093v-30.574l.154.155h-30.696l-10.377,5.867-2.841,1.575-.741.402-.278.031.247-.155.71-.432,2.811-1.637,10.376-5.96h30.82v30.758h-.061l-10.13,6.208c-1.142.71-2.131,1.297-2.779,1.667l-.741.433-.216.216Z" style="fill:#fff;"></path>
  <path d="m401.684,209.634c0,.061-3.027,1.945-6.918,4.169-3.891,2.223-6.917,3.983-7.01,3.922-.093-.093,3.026-1.946,6.918-4.169,3.891-2.224,6.948-3.922,7.01-3.922Z" style="fill:#fff;"></path>
  <path d="m358.234,247.495c0,.062-.278.309-.68.556-.401.216-.772.37-.803.309-.031-.062.247-.309.649-.556.432-.216.803-.371.834-.309Z" style="fill:#fff;"></path>
  <path d="m361.167,245.827c0,.093-.247.309-.649.556-.401.216-.772.371-.803.309s.247-.309.649-.556c.401-.247.772-.401.803-.309Z" style="fill:#fff;"></path>
  <path d="m364.13,244.191c0,.061-.247.308-.648.555-.402.217-.772.371-.803.309-.031-.062.278-.309.679-.556.371-.247.741-.432.772-.308Z" style="fill:#fff;"></path>
  <path d="m367.066,242.43c0,.062-.247.309-.68.556-.401.247-.772.371-.803.278-.03-.093.247-.309.68-.556.432-.216.772-.34.803-.278Z" style="fill:#fff;"></path>
  <path d="m370.029,240.732c0,.062-.278.309-.68.556-.401.216-.772.37-.803.278-.031-.093.247-.309.649-.556.401-.216.772-.278.834-.278Z" style="fill:#fff;"></path>
  <path d="m370.771,237.767c.093,0,.155.371.155.834s-.093.865-.155.865-.123-.371-.123-.865c-.031-.463.031-.834.123-.834Z" style="fill:#fff;"></path>
  <path d="m370.801,234.37c.093,0,.124.371.124.865,0,.463-.062.834-.154.834-.093,0-.155-.371-.155-.865,0-.463.093-.834.185-.834Z" style="fill:#fff;"></path>
  <path d="m370.802,230.973c.093,0,.155.371.124.865,0,.463-.062.833-.155.833-.092,0-.154-.37-.123-.833.031-.464.092-.865.154-.865Z" style="fill:#fff;"></path>
  <path d="m370.833,227.576c.092,0,.154.371.154.865,0,.463-.093.833-.154.833-.093,0-.124-.37-.124-.833,0-.464.062-.865.124-.865Z" style="fill:#fff;"></path>
  <path d="m370.863,224.179c.093,0,.124.37.124.865,0,.463-.062.864-.155.864s-.154-.401-.154-.864c0-.464.123-.865.185-.865Z" style="fill:#fff;"></path>
  <path d="m370.895,220.782c.093,0,.154.371.123.865,0,.463-.061.864-.154.864s-.154-.37-.124-.864c.031-.464.062-.865.155-.865Z" style="fill:#fff;"></path>
  <path d="m370.926,217.385c.092,0,.154.37.154.865,0,.463-.093.864-.154.864-.093,0-.124-.37-.124-.864-.031-.464.031-.865.124-.865Z" style="fill:#fff;"></path>
  <path d="m370.957,213.988c.092,0,.123.401.123.865,0,.463-.061.864-.154.864s-.155-.37-.155-.864c.031-.464.093-.865.186-.865Z" style="fill:#fff;"></path>
  <path d="m370.987,210.622c.092,0,.154.37.123.833,0,.464-.062.865-.154.865-.093,0-.155-.37-.124-.865,0-.463.062-.864.155-.833Z" style="fill:#fff;"></path>
  <path d="m399.954,240.238c0-.093.371-.155.834-.155s.865.062.865.155c0,.092-.371.154-.865.154-.463,0-.834-.093-.834-.154Z" style="fill:#fff;"></path>
  <path d="m396.558,240.238c0-.093.37-.155.833-.155.464,0,.865.062.865.155,0,.092-.37.154-.865.154-.463,0-.833-.093-.833-.154Z" style="fill:#fff;"></path>
  <path d="m393.16,240.238c0-.093.371-.155.865-.155.463,0,.834.062.834.155,0,.092-.371.154-.834.154s-.865-.093-.865-.154Z" style="fill:#fff;"></path>
  <path d="m389.764,240.238c0-.093.37-.155.864-.155.464,0,.834.062.834.155,0,.092-.37.154-.834.154-.463,0-.864-.093-.864-.154Z" style="fill:#fff;"></path>
  <path d="m386.397,240.238c0-.093.371-.155.865-.155.463,0,.834.062.834.155,0,.092-.371.154-.834.154-.494,0-.865-.093-.865-.154Z" style="fill:#fff;"></path>
  <path d="m383,240.238c0-.093.371-.155.865-.155s.864.062.864.155c0,.092-.37.154-.864.154s-.865-.093-.865-.154Z" style="fill:#fff;"></path>
  <path d="m379.604,240.238c0-.093.37-.155.864-.155s.865.062.865.155c0,.092-.371.154-.865.154s-.864-.093-.864-.154Z" style="fill:#fff;"></path>
  <path d="m376.207,240.238c0-.093.371-.155.865-.155s.864.062.864.155c0,.092-.37.154-.864.154s-.865-.093-.865-.154Z" style="fill:#fff;"></path>
  <path d="m372.809,240.238c0-.093.37-.155.864-.155s.865.062.865.155c0,.092-.371.154-.865.154s-.864-.093-.864-.154Z" style="fill:#fff;"></path>
  <path d="m370.739,240.238c0-.093.093-.155.186-.155s.155.062.155.155-.062.155-.155.155-.186-.062-.186-.155Z" style="fill:#fff;"></path>
  <path d="m405.421,229.892c.247.031.525.031.772,0,.68-.154,1.266-.587,1.606-1.204.463-.958.432-2.038-.093-2.965-.123-.247-.339-.432-.617-.494-.278-.031-.556.031-.803.216-.463.463-.803,1.019-.988,1.637-.248.679-.402,1.39-.464,2.1h-.278v-7.257c-.031-.186-.031-.402,0-.587.031.185.062.401.062.587,0,.432,0,.988.062,1.636.062,1.39.093,3.367.154,5.621h-.278c.031-.741.186-1.482.464-2.193.123-.339.247-.648.432-.957.154-.309.371-.587.648-.803.309-.216.649-.309,1.02-.247.339.093.617.309.772.648.525.989.525,2.193,0,3.181-.371.649-1.019,1.112-1.761,1.236-.185.031-.401.031-.586,0-.062-.093-.124-.155-.124-.155Z" style="fill:#fff;"></path>
  <path d="m390.381,206.113l-.092.123c-.093.093-.186.155-.309.217-.186.092-.402.154-.587.123-.278,0-.556-.123-.772-.309-.247-.247-.402-.556-.494-.864-.155-.34-.247-.711-.371-1.081-.247-.865-.401-1.761-.432-2.687h.278c.185,1.174.154,2.378-.093,3.551-.154.711-.525,1.328-1.081,1.792-.309.216-.679.308-1.05.216-.339-.093-.648-.309-.803-.618-.525-1.019-.494-2.223.062-3.242.371-.649.927-1.174,1.606-1.483.185-.092.371-.154.587-.185h.216s-.278.093-.71.309c-1.081.556-1.792,1.667-1.853,2.903-.031.556.061,1.111.339,1.575.124.247.371.432.649.494.278.031.587-.031.803-.186.494-.432.834-1.019.988-1.636.216-1.143.278-2.316.093-3.459h.278c.031.895.154,1.76.37,2.625.093.37.216.741.309,1.081.093.309.247.587.463.803.309.278.742.37,1.143.216.154-.062.309-.155.463-.278Z" style="fill:#fff;"></path>
  <path d="m490.192,222.975c0,.154-10.932,2.13-24.49,4.385-13.557,2.254-24.551,3.953-24.582,3.767-.031-.154,10.932-2.13,24.49-4.385,13.557-2.254,24.551-3.922,24.582-3.767Z" style="fill:#fff;"></path>
  <path d="m492.663,228.78c0,.155-10.932,2.131-24.459,4.386-13.526,2.254-24.551,3.953-24.582,3.798-.031-.154,10.932-2.131,24.49-4.385,13.526-2.285,24.551-3.953,24.551-3.799Z" style="fill:#fff;"></path>
  <path d="m495.07,234.586c0,.186-10.932,2.131-24.458,4.385-13.527,2.255-24.552,3.953-24.583,3.799-.031-.154,10.933-2.131,24.459-4.385,13.557-2.286,24.551-3.984,24.582-3.799Z" style="fill:#fff;"></path>
  <path d="m390.751,139.624c-.525-.34-1.019-.711-1.482-1.143-.927-.772-2.255-1.884-3.86-3.304-3.212-2.811-7.567-6.794-12.23-11.396-4.663-4.57-8.709-8.863-11.519-12.044-1.451-1.575-2.594-2.872-3.366-3.798-.432-.464-.803-.927-1.143-1.452.494.402.927.834,1.328,1.297l3.459,3.675c2.934,3.088,7.041,7.35,11.674,11.921,4.632,4.57,8.924,8.616,12.074,11.519l3.706,3.459c.494.37.958.802,1.359,1.266Z" style="fill:#fff;"></path>
  <path d="m393.252,122.886c0,.494-.061.988-.154,1.482-.124.957-.309,2.316-.402,4.015-.277,4.478.093,9.017,1.143,13.372l.093.463-.463-.093-1.637-.309c-5.652-1.019-10.747-2.007-14.422-2.717l-4.355-.896c-.525-.092-1.08-.216-1.575-.401.556.031,1.081.092,1.637.185l4.385.71c3.706.618,8.802,1.513,14.453,2.563l1.637.309-.34.371c-1.081-4.447-1.42-9.018-.988-13.557.124-1.359.309-2.687.587-4.015.093-.556.216-1.019.401-1.482Z" style="fill:#fff;"></path>
  <path d="m698.708,92.5903h-70.967v73.9627h70.967v-73.9627Z" style="fill:#e0e0e0;"></path>
  <path d="m693.891,92.5903h-70.967v73.9627h70.967v-73.9627Z" style="fill:#fafafa;"></path>
  <path d="m693.922,166.584h-70.998v-74.0247h70.998v74.0247Zm-70.967,0h70.905v-73.9629h-70.905v73.9629Z" style="fill:#e0e0e0;"></path>
  <path d="m684.348,102.534h-51.882v54.075h51.882v-54.075Z" style="fill:#fff;"></path>
  <path d="m632.466,156.979c-.371.556-.803,1.05-1.266,1.483-.834.865-2.008,2.038-3.305,3.335s-2.501,2.44-3.459,3.243c-.463.463-.957.895-1.482,1.235.371-.556.803-1.05,1.266-1.482.834-.865,2.0081-2.039,3.3051-3.336,1.328-1.297,2.501-2.439,3.4579-3.273.4641-.432.958-.865,1.483-1.205Z" style="fill:#e0e0e0;"></path>
  <path d="m684.349,156.856c.556.37,1.05.803,1.482,1.266.865.834,2.069,2.007,3.366,3.304,1.297,1.297,2.44,2.502,3.243,3.397.463.464.895.958,1.235,1.483-.556-.371-1.05-.803-1.482-1.266-.865-.834-2.069-2.008-3.366-3.305-1.298-1.328-2.44-2.501-3.243-3.397-.463-.463-.865-.957-1.235-1.482Z" style="fill:#e0e0e0;"></path>
  <path d="m684.226,102.689c.37-.556.802-1.05,1.266-1.483.834-.864,2.007-2.038,3.304-3.335,1.297-1.2971,2.502-2.4397,3.397-3.2426.463-.4633.957-.8956,1.482-1.2353-.37.5558-.802,1.05-1.266,1.4823-.833.8647-2.007,2.0691-3.304,3.3662-1.328,1.297-2.502,2.4394-3.459,3.2424-.432.402-.895.834-1.42,1.205Z" style="fill:#e0e0e0;"></path>
  <path d="m632.342,102.812c-.555-.37-1.05-.803-1.482-1.266-.865-.834-2.069-2.0073-3.335-3.3043-1.297-1.2971-2.44-2.5015-3.243-3.3971-.463-.4323-.895-.9573-1.235-1.4823.556.3706,1.05.8029,1.482,1.2662.865.8338,2.069,2.0073,3.335,3.3044,1.298,1.3279,2.44,2.5011,3.243,3.4591.463.432.865.895,1.235,1.42Z" style="fill:#e0e0e0;"></path>
  <path d="m684.224,156.609v-3.953c0-2.563,0-6.3-.062-11.025,0-9.481,0-22.976-.092-39.158l.216.216h-51.728l.217-.216v54.105l-.186-.185,37.46.092h13.31-2.748l-10.469.062-37.584.093h-.185v-54.507h52.16v.463c0,16.213-.093,29.74-.093,39.251v14.577c-.031.154-.216.185-.216.185Z" style="fill:#e0e0e0;"></path>
  <path d="m667.086,120.909h-17.325v17.325h17.325v-17.325Z" style="fill:#ebebeb;"></path>
  <path d="m713.532,41.3258h-398.225v20.4131h398.225v-20.4131Z" style="fill:#ebebeb;"></path>
  <path d="m328.956,51.5169c0,1.8529-1.513,3.3662-3.366,3.3662s-3.366-1.5133-3.366-3.3662,1.513-3.3661,3.366-3.3661c1.853.0308,3.366,1.5132,3.366,3.3661Z" style="fill:#fff;"></path>
  <path d="m339.394,51.5169c0,1.8529-1.513,3.3662-3.366,3.3662s-3.366-1.5133-3.366-3.3662,1.513-3.3661,3.366-3.3661c1.884.0308,3.366,1.5132,3.366,3.3661Z" style="fill:#fff;"></path>
  <path d="m349.895,51.5169c0,1.8529-1.513,3.3662-3.366,3.3662s-3.366-1.5133-3.366-3.3662,1.513-3.3661,3.366-3.3661c1.853.0308,3.366,1.5132,3.366,3.3661Z" style="fill:#fff;"></path>
  <path d="m523.822,94.5049c0,.1853-7.875.3088-17.603.3088s-17.603-.1235-17.603-.3088,7.875-.3089,17.603-.3089c9.697,0,17.603.0927,17.603.3089Z" style="fill:#fff;"></path>
  <path d="m528.764,99.1063c0,.1544-9.789.3088-21.864.3088s-21.865-.1235-21.865-.3088,9.79-.3088,21.865-.3088,21.864.1544,21.864.3088Z" style="fill:#fff;"></path>
  <path d="m516.597,112.787c-.278.278-.618.525-.958.71l-2.748,1.792-1.915,1.142-1.081.68c-.401.339-.926.494-1.451.401-.309-.093-.556-.309-.68-.618-.092-.247-.154-.525-.123-.803.031-.525.123-1.019.278-1.513.278-.957.525-1.945.803-2.964.463-2.008,1.328-3.984,1.019-5.683-.155-.772-.71-1.42-1.482-1.636-.68-.217-1.39-.217-2.07,0-.988.432-1.853,1.049-2.532,1.883-.525.556-.803.896-.834.865.186-.371.402-.71.68-.988.648-.927,1.544-1.668,2.563-2.131.741-.309,1.575-.34,2.347-.124.957.278,1.668,1.05,1.853,2.008.154.988.092,2.007-.185,2.964-.248.958-.525,1.977-.803,2.996-.278,1.019-.556,2.007-.803,2.996-.155.432-.247.895-.278,1.358,0,.433.123.803.401.896.278.062.649-.093,1.019-.309l1.081-.648,1.946-1.143c1.142-.71,2.162-1.266,2.841-1.637.401-.278.741-.401,1.112-.494Z" style="fill:#fff;"></path>
  <path d="m518.572,112.324c-.37-1.235-.555-2.532-.555-3.829-.217-1.267-.217-2.595,0-3.861.37,1.236.586,2.533.586,3.83.186,1.266.186,2.563-.031,3.86Z" style="fill:#fff;"></path>
  <path d="m521.878,108.402c-.927.34-1.884.494-2.873.463-.957.155-1.945.093-2.902-.154.926-.34,1.914-.494,2.8719-.433.957-.185,1.945-.154,2.903.124Z" style="fill:#fff;"></path>
  <path d="m503.996,123.287h-.463c-.432-.031-.865-.062-1.297-.124-1.575-.216-3.119-.617-4.602-1.142-10.314-3.644-17.17-13.403-17.077-24.3353,0-1.6059.154-3.1809.494-4.7559.092-.4323.185-.8647.309-1.2661.03-.1544.092-.278.154-.4324-.34,2.1309-.525,4.2926-.525,6.4235.154,10.6542,6.794,20.1352,16.769,23.9032,2.038.741,4.107,1.328,6.238,1.729Z" style="fill:#fff;"></path>
  <path d="m510.482,124.09c-.031.278-.124.556-.248.803-.308.71-.679,1.359-1.142,1.945-1.606,2.008-3.83,3.428-6.331,3.984-1.019.216-2.069.309-3.119.216l-.71-.061.586-.464c1.39-1.081,2.44-2.501,3.119-4.138.495-1.143.587-2.007.68-2.007.062.71-.062,1.451-.34,2.131-.587,1.76-1.637,3.304-3.088,4.447l-.154-.494c.988.061,1.976-.031,2.964-.217,2.378-.555,4.54-1.822,6.146-3.675.556-.772,1.112-1.605,1.637-2.47Z" style="fill:#fff;"></path>
  <path d="m535.341,115.35s-.216.309-.71.772c-.679.649-1.42,1.266-2.162,1.853-2.501,1.884-5.28,3.397-8.245,4.509s-6.053,1.791-9.203,2.007c-.957.062-1.915.062-2.841,0-.34.031-.71-.031-1.05-.123,0-.093,1.482-.093,3.86-.371,3.088-.339,6.115-1.081,9.018-2.162,2.903-1.111,5.651-2.532,8.184-4.292,1.976-1.297,3.088-2.316,3.149-2.193Z" style="fill:#fff;"></path>
  <path d="m520.642,191.598c0,.124-31.283.247-69.886.247s-69.917-.123-69.917-.247c0-.123,31.283-.247,69.917-.247s69.886.124,69.886.247Z" style="fill:#fafafa;"></path>
  <path d="m499.765,191.228c-.061-.124-.092-.247-.123-.402l-.34-1.142c-.278-1.05-.71-2.564-1.328-4.478-1.729-5.497-4.014-10.809-6.825-15.843-4.107-7.473-9.697-14.051-16.429-19.301-3.984-3.058-8.369-5.528-13.063-7.35-5.034-1.915-10.377-2.903-15.781-2.903-10.469.031-20.691,3.366-29.153,9.543-3.675,2.686-6.948,5.867-9.728,9.449-2.439,3.12-4.539,6.486-6.269,10.068-2.47,5.188-4.169,10.716-5.003,16.398-.277,2.008-.463,3.583-.494,4.602,0,.525-.061.926-.092,1.235v.402-1.514c.061-1.575.185-3.119.401-4.663.772-5.713,2.44-11.303,4.88-16.522,1.698-3.613,3.798-7.01,6.238-10.16,2.81-3.644,6.114-6.856,9.789-9.573,8.524-6.269,18.839-9.667,29.431-9.667,5.466,0,10.871.989,15.935,2.934,4.725,1.822,9.172,4.324,13.187,7.412,6.794,5.281,12.415,11.92,16.522,19.456,2.779,5.064,5.003,10.376,6.67,15.904.587,1.946.989,3.459,1.267,4.54.123.494.216.895.277,1.142.062.278.031.433.031.433Z" style="fill:#fafafa;"></path>
  <path d="m396.527,189.714c.093.093-.123.587-.525,1.081-.401.494-.803.865-.926.772-.124-.092.123-.555.525-1.08.401-.525.803-.834.926-.773Z" style="fill:#fafafa;"></path>
  <path d="m403.227,182.92c.093.093-.617.896-1.575,1.791-.957.896-1.822,1.545-1.914,1.452-.093-.093.617-.896,1.575-1.822.957-.865,1.822-1.513,1.914-1.421Z" style="fill:#fafafa;"></path>
  <path d="m411.072,177.547c.061.123-.803.71-1.946,1.39-.648.494-1.359.864-2.131,1.08-.092-.123.741-.802,1.884-1.513.649-.494,1.39-.803,2.193-.957Z" style="fill:#fafafa;"></path>
  <path d="m419.936,174.057c-.68.463-1.421.772-2.193.927-.741.309-1.513.494-2.316.525.648-.494,1.389-.834,2.192-.989.742-.308,1.545-.463,2.317-.463Z" style="fill:#fafafa;"></path>
  <path d="m429.23,171.865c-1.483.648-3.058.988-4.664.988,1.483-.649,3.058-.988,4.664-.988Z" style="fill:#fafafa;"></path>
  <path d="m438.711,170.598c-.741.309-1.513.495-2.316.495-.803.154-1.606.154-2.409,0,.741-.309,1.514-.495,2.316-.495.803-.154,1.606-.154,2.409,0Z" style="fill:#fafafa;"></path>
  <path d="m448.255,170.506c-.773.216-1.606.278-2.409.185-.803.062-1.606-.062-2.378-.309.772-.247,1.606-.309,2.409-.185.803-.062,1.605.031,2.378.309Z" style="fill:#fafafa;"></path>
  <path d="m457.796,171.278c-1.606.154-3.212,0-4.756-.463.803-.155,1.606-.155,2.409,0,.772,0,1.575.154,2.347.463Z" style="fill:#fafafa;"></path>
  <path d="m467.185,172.884c-.803.092-1.606,0-2.409-.216-.803-.062-1.606-.309-2.316-.711.803-.092,1.606,0,2.378.216.865.093,1.637.34,2.347.711Z" style="fill:#fafafa;"></path>
  <path d="m476.388,175.416c-.803,0-1.606-.154-2.347-.463-.772-.155-1.544-.464-2.224-.896.803-.031,1.575.124,2.317.432.802.124,1.575.464,2.254.927Z" style="fill:#fafafa;"></path>
  <path d="m485.158,179.215c-.803-.093-1.606-.371-2.316-.803-.772-.278-1.452-.711-2.038-1.266.803.123,1.606.401,2.316.802.741.278,1.451.711,2.038,1.267Z" style="fill:#fafafa;"></path>
  <path d="m493.158,184.372c-.772-.247-1.483-.618-2.1-1.143-1.081-.741-1.884-1.451-1.822-1.575.772.247,1.482.618,2.1,1.143,1.112.772,1.914,1.513,1.822,1.575Z" style="fill:#fafafa;"></path>
  <path d="m498.499,189.128c-.093.092-.556-.186-1.019-.649-.463-.463-.772-.895-.679-.988.092-.093.556.185,1.019.648.494.433.772.896.679.989Z" style="fill:#fafafa;"></path>
  <path d="m397.978,195.366c-.092.093-.926-.587-1.729-1.637-.556-.587-.957-1.328-1.143-2.131.124-.061.711.803,1.514,1.822.803,1.05,1.451,1.853,1.358,1.946Z" style="fill:#fafafa;"></path>
  <path d="m405.297,201.326c-.772-.247-1.452-.618-2.069-1.143-1.081-.772-1.853-1.482-1.761-1.575.773.247,1.452.649,2.07,1.143,1.05.741,1.822,1.451,1.76,1.575Z" style="fill:#fafafa;"></path>
  <path d="m413.636,205.742c-1.544-.37-2.996-1.081-4.262-2.038.803.124,1.544.371,2.224.803.772.247,1.451.679,2.038,1.235Z" style="fill:#fafafa;"></path>
  <path d="m422.653,208.491c-.772.062-1.575-.062-2.316-.309-.803-.124-1.575-.402-2.224-.834.772,0,1.575.124,2.316.371.772.092,1.545.37,2.224.772Z" style="fill:#fafafa;"></path>
  <path d="m431.948,210.251c-.803.124-1.606.062-2.378-.154-.803-.031-1.606-.278-2.316-.649.772-.092,1.544-.031,2.316.155.803.061,1.637.278,2.378.648Z" style="fill:#fafafa;"></path>
  <path d="m441.305,211.27c-.772.155-1.575.155-2.378,0-.802,0-1.575-.154-2.316-.463.772-.154,1.575-.154,2.378,0,.803.031,1.606.185,2.316.463Z" style="fill:#fafafa;"></path>
  <path d="m450.754,211.456c-1.544.308-3.15.308-4.725,0,.772-.248,1.575-.34,2.347-.248.803-.061,1.606.031,2.378.248Z" style="fill:#fafafa;"></path>
  <path d="m460.175,210.683c-.711.34-1.514.495-2.317.495-.772.154-1.575.154-2.378,0,.742-.309,1.514-.495,2.317-.495.772-.154,1.575-.154,2.378,0Z" style="fill:#fafafa;"></path>
  <path d="m469.439,208.861c-1.451.68-3.026,1.019-4.601,1.081.679-.401,1.451-.679,2.223-.772.742-.278,1.575-.37,2.378-.309Z" style="fill:#fafafa;"></path>
  <path d="m478.364,205.835c-.618.494-1.359.865-2.131,1.05-.71.371-1.513.556-2.316.618.618-.495,1.359-.865,2.131-1.05.741-.371,1.513-.587,2.316-.618Z" style="fill:#fafafa;"></path>
  <path d="m486.764,201.573c.062.124-.803.711-1.945,1.359-.649.463-1.39.772-2.193.927-.062-.124.803-.711,1.946-1.359.679-.433,1.42-.741,2.192-.927Z" style="fill:#fafafa;"></path>
  <path d="m494.485,196.107c.093.093-.679.834-1.729,1.637-1.05.803-1.946,1.359-2.039,1.235-.092-.123.68-.834,1.73-1.637.587-.525,1.266-.957,2.038-1.235Z" style="fill:#fafafa;"></path>
  <path d="m499.765,191.228c.093.092-.216.556-.71,1.05-.494.494-.958.772-1.05.679-.093-.092.216-.556.71-1.05.463-.463.926-.741,1.05-.679Z" style="fill:#fafafa;"></path>
  <path d="m444.764,219.855c-.124,0-.247-21.988-.247-49.071s.123-49.072.247-49.072c.123,0,.247,21.957.247,49.072s-.124,49.071-.247,49.071Z" style="fill:#fafafa;"></path>
  <path d="m489.05,144.009c.092.093-9.728,10.531-21.957,23.316-12.23,12.785-22.205,23.038-22.328,23.038-.124,0,9.728-10.531,21.957-23.316,12.26-12.785,22.235-23.1,22.328-23.038Z" style="fill:#fafafa;"></path>
  <path d="m486.363,143.731c.648-.34,1.297-.618,2.007-.803,1.266-.463,3.057-1.143,5.157-1.791l.371-.124-.062.371c-.185,1.05-.37,2.193-.556,3.397-.185,1.204-.339,2.007-.494,2.934v.247l-.247-.062c-1.915-.463-3.675-1.359-5.188-2.594-.432-.34-.834-.741-1.235-1.143-.155-.154-.278-.308-.371-.494,0,0,.618.587,1.76,1.452,1.544,1.142,3.274,1.945,5.127,2.378l-.278.185c.154-.926.309-1.915.463-2.934.155-1.019.402-2.316.587-3.397l.309.278c-2.1.679-3.922,1.266-5.219,1.637-.68.185-1.39.37-2.131.463Z" style="fill:#fafafa;"></path>
  <path d="m500.321,152.965c1.019-2.162,2.162-4.262,3.459-6.3,1.143-2.1,2.44-4.107,3.86-6.022-1.019,2.162-2.161,4.262-3.458,6.3-1.143,2.1-2.44,4.107-3.861,6.022Z" style="fill:#fafafa;"></path>
  <path d="m508.32,156.331c-1.575-2.038-2.996-4.2-4.293-6.424-1.42-2.13-2.717-4.354-3.86-6.67,1.575,2.038,2.996,4.169,4.293,6.393,1.42,2.161,2.717,4.385,3.86,6.701Z" style="fill:#fafafa;"></path>
  <path d="m514.929,153.675c-.803-1.946-1.977-3.737-3.398-5.312l.402-.062c-.834,1.977-.957,4.17-.371,6.239l-.432.092c-.093-1.482-.124-2.717-.154-3.582-.062-.463-.062-.926,0-1.359.123.433.216.896.216,1.359.092.865.216,2.1.339,3.551l.186,1.946-.587-1.853c-.401-1.297-.525-2.687-.34-4.045.124-.865.34-1.699.68-2.502l.154-.309.247.247c1.081,1.143,1.946,2.44,2.532,3.891.248.495.433,1.081.526,1.699Z" style="fill:#fafafa;"></path>
  <path d="m461.101,189.869s.247-.093.679-.309c.556-.34,1.019-.834,1.328-1.39.464-.864.649-1.853.525-2.81-.185-1.204-.556-2.378-1.142-3.459l-.402-.834.433-.247c.617,1.143.308,2.564-.711,3.367-.432.339-.957.494-1.513.494-.463-.031-.896-.216-1.266-.464-.525-.37-.927-.926-1.05-1.575-.062-.216-.062-.463,0-.679,0,0,0,.247.123.649.186.555.556,1.019,1.05,1.328.34.216.742.339,1.143.37.432,0,.834-.154,1.143-.432.803-.68,1.019-1.822.556-2.749l.432-.216.401.834c.587,1.143.989,2.347,1.143,3.613.093,1.05-.124,2.131-.679,3.027-.371.617-.896,1.111-1.545,1.389-.154.031-.401.093-.648.093Z" style="fill:#fafafa;"></path>
  <path d="m480.371,153.891c-.463.124-.957.185-1.451.185-.927.093-2.316.217-3.953.309-3.335.216-7.968.433-13.063.433-5.127,0-9.728-.155-13.094-.371-1.668-.093-3.027-.216-3.953-.309-.494,0-.958-.062-1.452-.185.494-.031.958-.031,1.452,0l3.953.123c3.335.124,7.967.217,13.063.217s9.697-.155,13.063-.278l3.953-.186c.494,0,.988,0,1.482.062Z" style="fill:#fafafa;"></path>
  <path d="m454.338,145.028c-.772.402-1.606.587-2.47.494-.865.062-1.73-.092-2.502-.494.834-.062,1.668-.062,2.502,0,.803-.093,1.636-.093,2.47,0Z" style="fill:#fafafa;"></path>
  <path d="m449.366,150.463s.185.155.494.464c.401.432.865.772,1.359,1.049.741.402,1.637.402,2.347,0,.926-.463,1.39-1.482,1.142-2.47-.185-.896-.988-1.575-1.914-1.637-.772-.031-1.513.34-1.946.988l-.123.247-.155-.216c-.494-.617-.525-1.451-.123-2.131.278-.463.587-.555.587-.525-.155.186-.309.402-.402.618-.278.587-.185,1.297.216,1.791h-.309c.464-.834,1.359-1.328,2.317-1.266,1.451.093,2.532,1.359,2.439,2.81-.031.34-.123.649-.247.958-.278.494-.648.895-1.142,1.142-.464.247-.989.34-1.483.309-.432-.031-.864-.185-1.235-.401-.525-.309-.988-.741-1.359-1.236-.37-.278-.494-.494-.463-.494Z" style="fill:#fafafa;"></path>
  <path d="m457.642,151.637c.339-1.05.803-2.038,1.451-2.965.494-.988,1.112-1.914,1.853-2.717-.34,1.05-.803,2.038-1.451,2.964-.464.989-1.081,1.915-1.853,2.718Z" style="fill:#fafafa;"></path>
  <path d="m461.874,153.057c-2.193-1.328-3.922-3.304-4.941-5.651.123-.062,1.05,1.328,2.408,2.903,1.359,1.575,2.625,2.625,2.533,2.748Z" style="fill:#fafafa;"></path>
  <path d="m418.669,135.702c.308.339.679.617,1.081.803,1.173.401,2.47.061,3.304-.834,1.143-1.452,1.76-3.243,1.76-5.096.155-2.285.031-4.57-.339-6.794-.124-.71-.217-1.389-.309-2.069h.494c.154,1.081.154,2.162,0,3.243-.155,1.05-.649,2.007-1.452,2.687-.741.648-1.729.864-2.686.555-.772-.278-1.421-.833-1.822-1.544-.525-.988-.803-2.131-.742-3.242-.03-.402,0-.803.062-1.205.062.371.093.772.093,1.143.031,1.081.309,2.131.834,3.088.401.618.957,1.081,1.667,1.328.803.247,1.699.062,2.316-.525.711-.618,1.174-1.482,1.267-2.409.123-1.05.123-2.069,0-3.119l.494-.062c.092.68.216,1.359.309,2.069.37,2.286.494,4.602.308,6.918-.031,1.946-.741,3.799-1.976,5.312-.525.556-1.235.895-2.007.988-.556.093-1.143,0-1.668-.216-.34-.155-.618-.371-.834-.649-.123-.247-.154-.37-.154-.37Z" style="fill:#fafafa;"></path>
  <path d="m434.851,134.559s-.216.309-.803.309c-.864-.062-1.575-.68-1.822-1.482-.154-.525-.216-1.112-.154-1.668,0-.587.154-1.204.123-1.822,0-.278-.092-.587-.247-.834-.154-.247-.401-.401-.679-.494-.556-.093-.957.556-1.143,1.235-.401,1.637-.525,3.336-.34,5.003h-.432c-.123-1.729-.247-3.15-.309-4.138-.061-.525-.061-1.05,0-1.575.155.494.247,1.05.278,1.575.124.988.309,2.409.494,4.107h-.432c-.216-1.729-.123-3.489.309-5.188.062-.401.247-.803.494-1.143.278-.37.71-.555,1.143-.494.772.216,1.328.927,1.297,1.761-.031.617-.093,1.235-.186,1.853-.061.525-.031,1.019.093,1.544.154.71.741,1.266,1.482,1.389.278.124.556.124.834.062Z" style="fill:#fafafa;"></path>
  <path d="m461.935,281.373s-3.705-4.602-8.647-5.652c-4.941-1.05-10.932,1.76-13.217,0-2.285-1.76-9.697-2.779-10.593-.247-.895,2.532.371,5.528,5.281,5.899,3.212.278,6.393.803,9.543,1.575,0,0-26.281,16.244-27.702,18.004-1.42,1.76-2.81,3.52-1.575,4.941,1.236,1.421,5.992-2.131,5.992-2.131l11.982-1.42c3.767.833,7.659,1.111,11.519.895,5.312-.525,10.932-4.416,10.932-4.416l12.353-1.946s2.594-12.507-5.868-15.502Z" style="fill:#bf6e65;"></path>
  <path d="m421.572,303.546c.061,0,0-.278,0-.772.061-.679.339-1.297.802-1.791,1.668-1.544,3.799-2.533,6.053-2.81,2.286-.34,4.602-.402,6.918-.186.957.124,1.946.155,2.903.093-.927-.34-1.884-.556-2.841-.618-2.347-.37-4.756-.37-7.103,0-2.409.309-4.663,1.452-6.331,3.212-.463.618-.71,1.359-.679,2.131.061.525.216.772.278.741Z" style="fill:#8b4a41;"></path>
  <path d="m429.787,296.783c.092.185,2.038-.71,4.323-2.008,2.285-1.297,4.077-2.501,3.953-2.655-.093-.186-2.038.71-4.323,2.007-2.286,1.266-4.046,2.471-3.953,2.656Z" style="fill:#8b4a41;"></path>
  <path d="m442.51,287.457c-.092-.155-1.822,1.327-2.378,3.952-.555,2.625.371,4.664.556,4.602.155-.062-.339-2.038.186-4.416s1.791-3.984,1.636-4.138Z" style="fill:#8b4a41;"></path>
  <path d="m667.764,200.77l-37.985-8.925-3.582-6.053-38.109.587-8.863,9.481-25.3849,12.476,21.309,89.466,71.523,3.675,21.092-100.707Z" style="fill:#263238;"></path>
  <path d="m467.123,272.911l28.783,2.748c3.675-1.019,7.597-1.019,11.272,0,5.527,1.792,14.391-4.694,14.391-4.694l12.538-18.714s5.528-38.387,12.013-42.494c6.485-4.107,7.041-4.262,7.041-4.262l11.396,70.72-15.102,24.768s-13.434,12.476-18.961,12.013c-5.528-.463-71.863-9.512-71.863-9.512l8.492-30.573Z" style="fill:#e97e24;"></path>
  <path d="m638.52,193.42l-12.662-8.832,3.274,13.712-19.456,72.634s1.884,54.384,1.142,78.565h65.532l-17.417-29.709,9.45-119.915-29.863-6.455Z" style="fill:#e97e24;"></path>
  <path d="m613.196,349.53l-2.903-80.881s-17.912-21.154-20.876-42.432c-2.965-21.278-3.953-32.704-3.953-32.704l2.656-8.184-9.913,10.006s-5.899,2.038-7.134,2.501c-6.516,2.471-12.909,5.281-19.147,8.4l14.36,111.423s-8.493,17.757-14.36,31.901l61.27-.03Z" style="fill:#e97e24;"></path>
  <path d="m565.267,306.912c.679,3.582,1.235,6.455,1.637,8.431l.494,2.316c.031.278.123.525.216.803,0-.278-.031-.556-.093-.803-.092-.587-.216-1.359-.37-2.316-.34-2.069-.834-4.972-1.421-8.462-1.204-7.226-2.872-17.078-4.694-27.948-1.822-10.871-3.551-20.784-4.879-27.918-.649-3.551-1.236-6.454-1.637-8.43-.185-.958-.371-1.699-.494-2.316-.031-.278-.124-.525-.216-.773,0,.278,0,.556.061.803.093.587.216,1.359.371,2.317.34,2.069.834,4.941,1.42,8.461,1.205,7.227,2.842,17.078,4.695,27.949" style="fill:#263238;"></path>
  <path d="m611.188,285.449c.248-.185.464-.401.68-.648l1.822-1.946,6.64-7.35,22.451-25.323.123-.155-.061-.185-3.583-12.847c-.556-1.915-1.081-3.829-1.575-5.682l-.37.494,14.885-.587h.494l-.185-.463-10.006-26.806c-1.235-3.242-2.224-5.836-2.934-7.689l-.803-2.039c-.092-.247-.185-.463-.309-.679.031.247.093.494.217.741.185.525.401,1.235.679,2.069.679,1.884,1.575,4.509,2.718,7.783l9.728,26.96.308-.494-14.885.524h-.494l.124.464c.525,1.853,1.05,3.767,1.575,5.682,1.235,4.447,2.439,8.74,3.582,12.847l.092-.371-22.266,25.478-6.485,7.505c-.71.864-1.266,1.513-1.698,2.038-.124.185-.309.432-.464.679Z" style="fill:#263238;"></path>
  <path d="m613.01,349.53c.216,0-.186-18.437-.896-41.074-.71-22.636-1.451-41.042-1.668-41.042-.216,0,.186,18.437.865,41.073.71,22.637,1.4821,41.043,1.699,41.043Z" style="fill:#263238;"></path>
  <path d="m578.237,194.872c-.093.278-.123.556-.154.865-.093.648-.216,1.451-.371,2.501-.278,2.316-.71,5.373-1.143,9.203-.988,7.967-2.316,19.023-3.922,31.623v.525l.4951-.093,8.245-1.42-.432-.556c-.494,1.143-1.05,2.316-1.575,3.521l-3.088,6.917-.093.216.1541.186,22.884,26.527,6.918,7.814,1.883,2.069c.433.463,3.274,2.625,3.305,2.594,0-.031-2.78-2.162-3.181-2.687l-1.76-2.162-6.671-7.967c-5.744-6.794-13.712-16.121-22.698-26.713v.401c.988-2.223,2.038-4.601,3.119-6.917.525-1.143,1.081-2.409,1.575-3.521l.309-.679-.711.123-8.245,1.452.432.401c1.452-12.662,2.718-23.687,3.644-31.654.402-3.891.741-7.041.988-9.296.093-1.019.186-1.853.217-2.501-.031-.216-.062-.494-.124-.772Z" style="fill:#263238;"></path>
  <g style="fill:none; opacity:.3;">
    <path d="m652.2,230.85c-.248.803-5.621,1.636-6.547,3.891-.927,2.254-.464,4.848.185,7.195.648,2.347,1.544,4.725,1.359,7.165-.309,4.385-3.768,7.782-6.98,10.747-9.017,8.276-20.042,17.263-29.06,25.601,7.999-10.191,18.437-20.722,27.269-30.233,1.421-1.297,2.502-2.903,3.212-4.694.71-2.317,0-4.756-.68-7.073-.895-3.057-1.822-6.145-2.717-9.202-.216-.772-.741-2.1-.8651-2.533,1.112-.247,2.224-.37,3.366-.401,3.799-.433,7.628-.587,11.458-.494"></path>
  </g>
  <path d="m668.382,199.906s12.507,4.385,16.429,17.788c3.922,13.402,6.918,32.055,10.84,43.76,3.953,11.704.834,12.661,3.026,17.386,2.193,4.725,11.303,19.147,4.355,29.74-6.949,10.623-13.897,16.707-26.899,11.519-7.628-2.965-14.545-7.505-20.289-13.341l12.538-106.852Z" style="fill:#e97e24;"></path>
  <path d="m676.134,224.426c-.061.34-.061.68-.061.988v4.942c0,.772-.124,1.574-.186,2.47-.1541,1.76-.216,3.799-.586,5.991-.155,1.143-.309,2.316-.4641,3.459-.154,1.143-.463,2.44-.679,3.768-.432,2.594-1.081,5.311-1.729,8.214-1.39,5.744-3.12,12.044-4.972,18.622-1.853,6.578-3.521,12.909-4.849,18.715-.587,2.903-1.1429,5.651-1.575,8.276-.185,1.328-.432,2.563-.587,3.768-.154,1.204-.247,2.378-.37,3.52-.278,2.224-.278,4.262-.34,6.022,0,.896-.093,1.73-.062,2.502,0,.772.062,1.451.093,2.069.062,1.143.123,2.162.154,2.872,0,.34.031.679.093.988.031-.34.031-.679,0-1.019v-4.941c0-.741.093-1.575.124-2.471.123-1.76.154-3.798.463-5.991.123-1.142.278-2.316.401-3.459.124-1.142.402-2.439.618-3.767.401-2.594,1.019-5.343,1.637-8.246,1.327-5.744,3.026-12.044,4.879-18.652,1.853-6.609,3.582-12.878,4.941-18.653.618-2.903,1.266-5.652,1.668-8.277.216-1.297.463-2.532.648-3.767.155-1.236.278-2.378.433-3.459.308-2.224.37-4.262.494-6.022,0-.896.123-1.73.123-2.471v-2.1c0-1.142-.061-2.161-.092-2.872-.031-.309-.093-.679-.217-1.019Z" style="fill:#263238;"></path>
  <path d="m664.892,272.849c0,.124,1.853-.34,4.848-.648,7.875-.772,15.781.926,22.637,4.848,2.625,1.513,4.076,2.687,4.169,2.594.092-.092-.309-.37-.958-.895-.926-.772-1.914-1.483-2.933-2.131-6.856-4.262-14.978-6.022-22.946-4.911-1.204.155-2.378.402-3.551.742-.463.061-.896.185-1.266.401Z" style="fill:#263238;"></path>
  <path d="m519.531,272.695c0,.123,1.297.865,3.305,2.316,5.219,3.86,9.326,9.018,11.951,14.978.988,2.316,1.451,3.767,1.575,3.706.124-.031,0-.402-.185-1.081-.247-.958-.525-1.915-.896-2.841-2.409-6.177-6.64-11.489-12.167-15.194-.834-.556-1.699-1.05-2.595-1.483-.617-.309-.957-.463-.988-.401Z" style="fill:#263238;"></path>
  <path d="m617.148,101.917c3.922-2.5019,4.848-8.246,2.749-12.3842-2.131-4.1073-6.6089-6.6087-11.211-7.3499-6.763-1.05-13.619,1.2353-18.436,6.0838-2.533,2.5941-4.602,5.9911-7.999,7.1955-3.026,1.05-6.331.0927-9.512.525-4.23.5559-7.874,3.5515-10.036,7.2578-2.038,3.767-3.243,7.936-3.583,12.198-.463,3.891-.772,8.184-3.458,11.025-2.687,2.841-6.794,3.366-10.068,5.342-6.238,4.139-8.06,12.477-4.107,18.839,1.297,1.883,3.15,3.613,3.304,5.929.124,2.069-1.204,3.953-1.853,5.96-1.637,5.127,2.594,11.241,7.968,11.519,2.717.155,5.62-.895,8.06.309,2.44,1.204,3.335,4.107,4.879,6.331,3.274,4.416,9.203,5.96,14.2061,3.675,2.008-.988,3.891-2.594,6.115-2.44,2.223.155,3.984,2.038,6.145,2.471,2.842.556,5.559-1.544,7.258-3.922,1.6981-2.378,2.903-5.158,5.064-7.072,2.842-2.533,6.918-3.181,10.469-4.386,15.38-5.311,23.563-22.08,18.252-37.46-.463-1.297-.988-2.594-1.637-3.829" style="fill:#263238;"></path>
  <path d="m625.672,193.42l.556-27.948,5.312-47.126c.154-3.366-2.285-6.3-5.621-6.732l-34.155-9.666c-10.963-1.483-18.684,11.858-19.703,22.914-1.1429,12.26-2.007,27.269-.803,36.472,2.409,18.529,16.46,21.247,16.46,21.247l-.494,11.735,21.247,17.047,17.201-17.943Z" style="fill:#bf6e65;"></path>
  <path d="m576.199,138.605c-.062,1.266.926,2.377,2.224,2.439,1.2661.093,2.347-.803,2.501-2.069.093-1.266-.865-2.378-2.131-2.44h-.062c-1.266-.092-2.378.834-2.532,2.07Z" style="fill:#263238;"></path>
  <path d="m575.118,132.768c.278.309,2.131-.957,4.602-.865,2.501.093,4.385,1.39,4.663,1.143.278-.247-.155-.71-.958-1.328-1.08-.803-2.377-1.235-3.705-1.266-1.3279-.031-2.625.339-3.706,1.081-.772.555-1.05,1.08-.896,1.235Z" style="fill:#263238;"></path>
  <path d="m600.163,139.191c-.092,1.267.896,2.347,2.162,2.44h.062c1.266.093,2.347-.803,2.501-2.069.093-1.266-.895-2.347-2.162-2.44h-.03c-1.297-.123-2.409.803-2.533,2.069Z" style="fill:#263238;"></path>
  <path d="m600.101,133.972c.278.309,2.131-.957,4.663-.895,2.533.061,4.355,1.389,4.6021,1.142.2469-.247-.124-.71-.957-1.328-1.081-.803-2.378-1.235-3.706-1.266s-2.625.34-3.706,1.081c-.741.556-1.05,1.112-.896,1.266Z" style="fill:#263238;"></path>
  <path d="m590.343,152.532c-1.328-.463-2.718-.741-4.108-.864-.648-.093-1.266-.247-1.359-.68-.03-.679.124-1.328.494-1.914l2.07-4.88c2.872-6.917,4.972-12.661,4.694-12.816-.278-.123-2.8409,5.435-5.744,12.415-.68,1.729-1.359,3.366-1.977,4.91-.432.772-.587,1.668-.401,2.532.185.464.556.834,1.05.989.37.123.772.185,1.142.185,1.328.247,2.749.278,4.139.123Z" style="fill:#263238;"></path>
  <path d="m587.718,182.581c8.678.37,17.263-1.668,24.86-5.899,0,0-6.331,12.508-24.737,10.253l-.123-4.354Z" style="fill:#8b4a41;"></path>
  <path d="m599.269,123.472c.216.68,2.779.433,5.744.896,2.995.463,5.373,1.328,5.744.71.185-.278-.216-.957-1.143-1.637-2.594-1.729-5.806-2.192-8.77-1.235-1.112.402-1.668.927-1.575,1.266Z" style="fill:#263238;"></path>
  <path d="m576.261,124.059c.432.587,2.192,0,4.292.062,2.1.062,3.892.494,4.293-.093.185-.278-.062-.865-.834-1.451-2.1-1.39-4.817-1.39-6.9171,0-.772.586-1.019,1.173-.834,1.482Z" style="fill:#263238;"></path>
  <path d="m598.31,157.751c1.606,2.131,1.204,5.158-.926,6.764-.464.339-.9579.617-1.514.772-.586.216-1.235.216-1.822,0-.957-.525-1.667-1.452-1.9449-2.533-.34-.833-.6801-1.698-1.019-2.532-.278-.371-.217-.926.185-1.204.154-.124.34-.186.556-.155l6.269-1.513" style="fill:#8b4a41;"></path>
  <path d="m593.617,165.318c1.05.154,2.131,0,3.12-.402,1.142-.37,2.13-1.173,2.717-2.223.34-.649.494-1.39.402-2.131-.031-.772-.217-1.513-.556-2.193-.309-.679-.741-1.266-1.297-1.791l-.186-.185-.216.092c-4.539,1.606-8.06,2.409-8.06,2.625s3.706-.278,8.307-1.853l-.401-.092c.463.432.865.957,1.142,1.544,1.112,1.822.525,4.169-1.297,5.281-.247.154-.494.278-.772.37-1.698.741-2.933.803-2.903.958Z" style="fill:#263238;"></path>
  <path d="m559.677,120.971c.772-2.81,2.471-5.281,4.849-6.98,1.42-.71,2.779-1.513,4.107-2.377,2.656-2.162,3.274-5.899,4.91-8.895,2.193-3.9216,6.146-6.5465,10.593-7.0407,3.644-.3705,7.412.7103,10.963-.1852,2.625-.6795,4.941-2.378,7.597-2.8721,5.188-.9882,10.006,2.7485,13.804,6.4544,0,3.7056-2.933,6.2076-5.744,8.5856-2.903,2.408-6.732,3.428-10.438,2.748-2.841-.525-5.929-1.945-8.4-.463-2.47,1.482-2.686,5.466-4.972,7.473-3.273,2.842-8.461.186-12.661,1.39-3.212.957-5.22,4.015-7.35,6.609-2.131,2.594-5.312,5.034-8.524,4.076.093-2.841.494-5.713,1.266-8.523Z" style="fill:#263238;"></path>
  <path d="m598.589,105.283c2.316-.68,7.103-2.162,8.338-4.2,2.718-4.3855,7.474-7.3811,12.353-7.1031,5.188.4014,9.481,4.2,10.562,9.2951,6.176.217,11.735,3.799,14.514,9.327.371.71.649,1.42.927,2.162,1.853,3.304,2.1609,7.226.864,10.777-.803,2.1-2.1609,4.447-1.142,6.424,1.019,1.976,3.891,2.069,6.053,2.81,3.86,1.452,6.145,5.466,5.373,9.512-.309,1.39-.957,2.779-.679,4.2.278,1.42,1.544,2.501,2.501,3.613,3.768,4.478,3.181,11.179-1.297,14.947-1.42,1.174-3.119,1.976-4.941,2.316-1.637.309-3.459.216-4.879,1.143-1.637,1.019-2.317,2.995-3.459,4.539-2.347,2.965-6.3,4.2-9.913,3.089-.711-.247-1.39-.587-2.008-.989-1.142,1.545-2.841,2.595-5.836,2.595l.679-38.85c-.432.957-1.266,1.637-2.316,1.853-6.238,1.389-7.134-11.458-5.744-14.978-2.347-1.915-4.447-4.138-6.238-6.578-1.73-2.532-3.243-9.481-2.873-12.6-2.254.155-11.827-2.995-10.839-3.304Z" style="fill:#263238;"></path>
  <path d="m624.962,144.009c.185-3.953,5.034-4.787,8.462-2.81,1.884,1.142,3.304,3.273,3.15,7.473-.463,11.18-11.581,8.431-11.581,8.06-.031-.37-.278-8.122-.031-12.723Z" style="fill:#bf6e65;"></path>
  <path d="m628.544,152.687s.185.154.525.309c.463.216.988.247,1.451.092,1.143-.37,2.317-2.223,2.409-4.231.062-.957-.092-1.914-.432-2.81-.185-.71-.71-1.297-1.39-1.544-.463-.124-.926.093-1.142.494-.155.309-.093.525-.155.556-.062.031-.216-.185-.123-.649.061-.277.247-.525.463-.679.309-.216.71-.309,1.081-.247.926.216,1.667.926,1.945,1.822.433.988.618,2.069.556,3.15-.154,2.254-1.39,4.293-3.026,4.694-.618.155-1.266,0-1.761-.37-.401-.309-.401-.587-.401-.587Z" style="fill:#8b4a41;"></path>
  <path d="m614.03,102.287c.865.463,1.637,1.081,2.224,1.853,1.142,1.544,1.5439,4.447.834,7.752v.278l.278.061c3.2419.865,5.929,3.212,7.1949,6.331.34.865.556,1.791.587,2.718-.031.988-.124,1.976-.34,2.964-.216,1.05-.37,2.1-.432,3.181-.093,1.174.216,2.316.895,3.305,1.39,2.131,3.614,3.15,5.528,4.169,1.915.834,3.675,1.976,5.188,3.397,2.533,2.47,4.015,5.837,4.17,9.388.061,2.378-.433,4.756-1.483,6.918-.741,1.513-1.359,2.316-1.297,2.316.185-.155.34-.309.463-.494.433-.525.803-1.081,1.1429-1.668,1.174-2.162,1.791-4.601,1.76-7.072-.061-3.706-1.575-7.257-4.2-9.882-1.575-1.483-3.366-2.687-5.342-3.583-1.915-.988-4.015-2.038-5.25-3.891-1.236-1.698-.68-3.922-.371-5.929.216-1.019.34-2.069.34-3.088-.031-1.019-.278-2.039-.649-2.996-1.389-3.304-4.261-5.775-7.751-6.64l.216.34c.68-3.459.124-6.485-1.143-8.06-.494-.618-1.142-1.081-1.883-1.39-.217-.123-.433-.216-.68-.278Z" style="fill:#2f3b3f;"></path>
  <path d="m667.269,263.399c-2.563,1.915-5.219,3.675-7.967,5.281-1.791.772-6.578,5.003-7.721,9.388-1.142,4.386-4.261,6.578-5.28,8.617-1.02,2.038-1.02,10.561-.896,12.661.123,2.131-6.176,6.918-6.578,7.844-.401.927-.896,3.088.772,3.613,1.482.556,3.119.309,4.385-.648.896-.896,4.602-4.107,4.602-4.107,0,0-.371,3.983.895,4.261,1.112.124,2.224.124,3.336,0l4.756-7.072s1.142,5.003,3.211,4.509c2.069-.494,3.335-1.05,3.613-4.107.278-2.316.8651-4.633,1.668-6.825v-2.563s2.687,3.335,4.756,2.841c2.069-.494,2.965-1.544,3.088-2.316-.154-2.718-.587-5.436-1.297-8.061-.71-2.192-1.575-4.354-2.563-6.423,0,0-1.143-5.652.123-7.844,1.267-2.162,8.493-8.369,9.389-10.407.895-2.07,2.192-5.158-.896-6.3-3.057-1.205-6.949,4.57-11.396,7.658Z" style="fill:#bf6e65;"></path>
  <path d="m652.2,280.909c0,.062.433.525,1.359,1.02,2.502,1.266,5.435,1.42,8.06.494.988-.371,1.544-.772,1.483-.865-.031-.093-2.44.926-5.559.71-3.088-.185-5.25-1.544-5.343-1.359Z" style="fill:#8b4a41;"></path>
  <path d="m649.05,306.48c.185.123,1.142-1.143,1.883-2.965.711-1.822.68-3.459.494-3.459-.185,0-.555,1.452-1.142,3.212-.618,1.76-1.421,3.088-1.235,3.212Z" style="fill:#8b4a41;"></path>
  <path d="m657.48,303.361c.186.092.989-1.267,1.328-3.181.34-1.915.155-3.459,0-3.459-.339,1.081-.586,2.193-.679,3.304-.371,1.822-.803,3.243-.649,3.336Z" style="fill:#8b4a41;"></path>
  <path d="m713.532,349.53c0-2.07-.093-122.047-.247-308.2041l.247.2471-398.195.0309.309-.3089v308.204l-.278-.278,398.225.278-398.256.278h-.277V41.0171h.277l398.195.0618h.216v.247c-.124,186.1261-.216,306.1341-.216,308.2041Z" style="fill:#263238;"></path>
  <path d="m452.116,459.964l8.524,55.928h49.473l11.488-55.125-69.485-.803Z" style="fill:#e97e24;"></path>
  <path d="m514.652,495.818c0,.155-12.662.278-28.288.278s-28.319-.123-28.319-.278c0-.154,12.662-.278,28.319-.278s28.288.093,28.288.278Z" style="fill:#fafafa;"></path>
  <path d="m514.868,493.07c0,.154-12.755.277-28.504.277-15.719,0-28.505-.123-28.505-.277,0-.155,12.755-.278,28.505-.278s28.504.123,28.504.278Z" style="fill:#fafafa;"></path>
  <path d="m514.744,489.951c0,.154-12.755.277-28.504.277s-28.505-.123-28.505-.277c0-.155,12.755-.278,28.505-.278s28.504.123,28.504.278Z" style="fill:#fafafa;"></path>
  <path d="m466.322,512.711c-1.205-4.664-2.008-9.419-2.44-14.206.679,2.316,1.173,4.663,1.482,7.072.525,2.347.834,4.725.958,7.134Z" style="fill:#fafafa;"></path>
  <path d="m469.687,512.124c-.37-2.285-.556-4.602-.617-6.918-.247-2.285-.371-4.601-.309-6.917.556,2.254.834,4.57.895,6.917.248,2.286.247,4.602.031,6.918Z" style="fill:#fafafa;"></path>
  <path d="m475.801,512.124c-.679-2.285-1.112-4.663-1.266-7.041-.371-2.378-.494-4.756-.371-7.165.711,4.694,1.267,9.45,1.637,14.206Z" style="fill:#fafafa;"></path>
  <path d="m480.126,512.402c-.463-2.347-.679-4.756-.679-7.165-.186-2.409-.093-4.817.216-7.195.309,4.786.463,9.573.463,14.36Z" style="fill:#fafafa;"></path>
  <path d="m487.753,512.124c-.525-4.509-.679-9.079-.463-13.619.525,4.509.679,9.079.463,13.619Z" style="fill:#fafafa;"></path>
  <path d="m493.312,512.402c-.278-2.347-.34-4.694-.216-7.041-.062-2.347.031-4.694.34-7.011.277,2.317.339,4.695.247,7.011.061,2.378-.062,4.725-.371,7.041Z" style="fill:#fafafa;"></path>
  <path d="m498.531,511.661c.093-4.911.556-9.821,1.421-14.638.062,2.47-.062,4.941-.371,7.411-.185,2.409-.525,4.849-1.05,7.227Z" style="fill:#fafafa;"></path>
  <path d="m505.264,510.919c.031-2.099.309-4.199.834-6.238.339-2.069.957-4.107,1.852-6.022-.308,2.069-.741,4.139-1.266,6.146-.37,2.069-.834,4.107-1.42,6.114Z" style="fill:#fafafa;"></path>
  <path d="m500.477,349.56c0,.093-.031.186-.062.278l-.216.772c-.217.741-.556,1.761-.958,3.027-.401,1.266-.926,2.903-1.451,4.786-.525,1.884-1.143,3.984-1.791,6.393-.649,2.378-1.297,4.972-1.915,7.782-.618,2.811-1.266,5.837-1.915,9.018-1.142,6.393-2.316,13.434-3.026,20.876-.71,7.443-1.05,14.577-1.143,21.062,0,3.243,0,6.331.093,9.203.092,2.872.185,5.559.34,8.06.154,2.501.339,4.601.494,6.609.154,2.007.309,3.613.494,4.972.154,1.359.247,2.378.309,3.15,0,.309.061.587.061.803v.278c-.031-.093-.061-.186-.061-.278,0-.216-.093-.494-.124-.803-.093-.772-.247-1.822-.432-3.119-.186-1.328-.402-3.027-.587-4.972-.185-1.946-.432-4.169-.587-6.609-.123-2.44-.339-5.157-.401-8.06-.062-2.903-.124-5.991-.155-9.203.062-6.516.402-13.65,1.143-21.124.772-7.473,1.853-14.545,3.088-20.907.649-3.181,1.266-6.207,1.946-9.017.71-2.811,1.359-5.405,2.007-7.783.649-2.378,1.297-4.508,1.853-6.361s1.081-3.459,1.544-4.756l1.05-2.996c.124-.309.216-.556.278-.772.062-.123.093-.216.124-.309Z" style="fill:#288893;"></path>
  <path d="m491.582,384.21c1.359-4.014,4.077-7.442,7.69-9.697,1.235-.772,2.78-1.389,4.077-.741,1.729.834,1.853,3.274,1.358,5.096-.895,3.15-2.872,5.836-5.589,7.627-2.409,1.792-5.436,2.564-8.4,2.131" style="fill:#288893;"></path>
  <path d="m488.557,407.588c1.266-4.849,5.126-11.704,9.141-14.669.617-.525,1.297-.926,2.069-1.143.772-.216,1.606-.031,2.223.464.68.926.865,2.13.494,3.211-1.667,7.196-7.257,12.847-14.422,14.546" style="fill:#288893;"></path>
  <path d="m487.723,428.186c1.976-4.601,5.157-8.616,9.203-11.58.864-.803,2.038-1.236,3.211-1.143,1.761.309,2.533,2.44,2.378,4.2-.309,3.644-3.088,6.578-5.96,8.832-2.656,1.822-5.497,3.274-8.524,4.385" style="fill:#288893;"></path>
  <path d="m488.217,442.979c1.914-3.521,4.601-6.547,7.844-8.925.679-.525,1.451-.896,2.316-1.05.865-.154,1.76.185,2.316.865.772,1.142,0,2.717-.803,3.829-2.748,3.86-6.67,6.732-11.179,8.184" style="fill:#288893;"></path>
  <path d="m487.814,436.957c-3.366-4.138-7.134-7.968-11.21-11.396-.649-.555-1.452-1.142-2.224-.833-.617.247-1.019.833-1.019,1.482,0,.648.124,1.297.433,1.884,2.717,6.022,8.029,10.5,14.422,12.136" style="fill:#288893;"></path>
  <path d="m488.186,417.717l-8.802-10.747c-.772-1.081-1.729-2.007-2.81-2.717-1.142-.711-2.594-.711-3.767,0-1.02.864-1.483,2.254-1.143,3.551.309,1.297.896,2.502,1.729,3.521,1.699,2.656,3.891,4.941,6.424,6.825,2.594,1.76,4.941,2.933,8.06,2.47" style="fill:#288893;"></path>
  <path d="m489.39,396.007c-1.729-5.126-4.787-9.728-8.863-13.31-.649-.649-1.421-1.112-2.316-1.359-1.761-.34-3.459,1.143-4.015,2.841-.556,1.977-.278,4.077.803,5.837,1.081,1.729,2.471,3.212,4.138,4.385,2.965,2.286,6.269,4.077,9.79,5.312" style="fill:#288893;"></path>
  <path d="m492.91,376.675c-.864-6.238-4.107-11.396-7.844-16.43-.803-1.05-1.914-2.161-3.211-1.976-.834.185-1.545.772-1.823,1.575-.277.803-.401,1.637-.37,2.501.34,7.721,5.25,14.453,12.476,17.171" style="fill:#288893;"></path>
  <path d="m495.382,366.823c-.402-3.18-.525-6.392-.309-9.604.185-3.212,1.297-6.331,3.181-8.956.803-1.142,1.915-2.038,3.212-2.563,1.297-.525,2.779-.34,3.922.525.957.896,1.451,2.162,1.358,3.459-.092,1.266-.432,2.532-.988,3.675-2.347,5.62-6.3,11.859-10.376,13.464Z" style="fill:#288893;"></path>
  <path d="m457.025,374.235c.031.278.031.525,0,.803v2.316c0,.989,0,2.162.062,3.583.062,1.389,0,2.964.185,4.725.155,3.458.495,7.658,1.02,12.26.525,4.601,1.358,9.635,2.439,14.854,1.081,5.219,2.409,10.16,3.737,14.576,1.328,4.448,2.718,8.37,3.984,11.643.587,1.637,1.235,3.088,1.729,4.385.525,1.297.988,2.409,1.39,3.305.401.895.648,1.544.895,2.069.124.247.217.494.278.741-.154-.216-.278-.432-.37-.679-.247-.525-.587-1.143-.988-2.039-.402-.895-.927-1.976-1.483-3.273-.556-1.297-1.142-2.718-1.822-4.355-1.328-3.273-2.717-7.195-4.107-11.642-1.39-4.416-2.687-9.388-3.799-14.638-1.111-5.25-1.853-10.284-2.408-14.916-.556-4.633-.803-8.771-.896-12.291-.093-1.761-.062-3.336-.093-4.756v-3.583c0-.988.062-1.698.093-2.316,0-.247.062-.525.154-.772Z" style="fill:#263238;"></path>
  <path d="m458.415,399.744c.062-3.027,1.174-5.96,3.181-8.277.587-.864,1.544-1.389,2.594-1.389,1.359.185,1.976,1.822,2.038,3.181.062,2.316-.71,4.601-2.162,6.392-1.266,1.73-3.15,2.903-5.25,3.243" style="fill:#263238;"></path>
  <path d="m461.379,416.297c-.154-3.583.988-9.08,3.057-11.952.309-.463.68-.864,1.143-1.142.463-.309,1.081-.371,1.606-.155.679.463,1.05,1.266,1.019,2.069.402,5.219-2.193,10.222-6.67,12.94" style="fill:#263238;"></path>
  <path d="m465.271,430.502c.371-3.551,1.668-6.979,3.768-9.882.432-.741,1.112-1.266,1.946-1.482,1.266-.155,2.316,1.142,2.532,2.347.556,2.532-.71,5.126-2.162,7.288-1.389,1.822-3.026,3.428-4.848,4.818" style="fill:#263238;"></path>
  <path d="m468.761,440.477c.556-2.81,1.76-5.466,3.459-7.751.37-.494.833-.926,1.358-1.235.556-.309,1.236-.247,1.761.092.772.618.617,1.822.278,2.78-1.05,3.211-3.089,6.022-5.837,7.998" style="fill:#263238;"></path>
  <path d="m467.216,436.494c-3.181-2.1-6.578-3.892-10.098-5.374-.525-.309-1.143-.34-1.699-.093-.37.309-.525.803-.37,1.236.154.432.37.833.679,1.142,3.15,3.521,7.721,5.436,12.446,5.158" style="fill:#263238;"></path>
  <path d="m463.294,423.276l-8.307-5.404c-.772-.556-1.606-.989-2.532-1.236-.927-.247-1.915.062-2.564.772-.525.803-.556,1.853-.061,2.687.494.803,1.142,1.482,1.914,2.038,1.73,1.421,3.706,2.533,5.837,3.274,2.131.648,3.984.957,5.991,0" style="fill:#263238;"></path>
  <path d="m459.465,408.236c-2.285-3.119-5.343-5.589-8.894-7.164-.587-.309-1.205-.433-1.853-.402-1.297.309-2.193,1.483-2.131,2.811.031,1.451.71,2.841,1.822,3.798,1.112.926,2.378,1.637,3.768,2.069,2.501.896,5.157,1.39,7.813,1.482" style="fill:#263238;"></path>
  <path d="m457.705,394.339c-1.915-4.045-5.25-6.917-8.863-9.511-.68-.68-1.699-.927-2.625-.68-.525.309-.865.865-.896,1.483-.031.586.062,1.204.309,1.76,1.884,5.188,6.671,8.709,12.168,9.018" style="fill:#263238;"></path>
  <path d="m457.241,387.082c-.957-2.069-1.729-4.261-2.316-6.485-.556-2.223-.463-4.601.247-6.794.309-.957.865-1.791,1.637-2.44.772-.648,1.822-.834,2.779-.494.834.402,1.452,1.143,1.668,2.069.185.896.247,1.822.124,2.718-.371,4.385-1.699,9.45-4.139,11.426Z" style="fill:#263238;"></path>
  <path d="m519.562,373.679c.061.247.061.525.061.772,0,.587,0,1.328.093,2.317.093.988.062,2.192,0,3.582-.062,1.39,0,2.995-.093,4.756-.092,3.459-.401,7.689-.895,12.291-.494,4.632-1.328,9.666-2.4091,14.916-1.081,5.25-2.4399,10.191-3.798,14.638-1.359,4.447-2.811,8.369-4.108,11.612-.617,1.636-1.266,3.088-1.822,4.385-.556,1.266-1.05,2.378-1.482,3.273-.433.896-.741,1.514-.988,2.039-.093.247-.217.463-.371.679.062-.247.154-.494.278-.741l.896-2.069c.401-.896.864-2.008,1.389-3.305.525-1.297,1.143-2.748,1.73-4.385,1.266-3.273,2.625-7.226,3.983-11.642,1.359-4.417,2.625-9.358,3.737-14.577s1.853-10.253,2.44-14.854c.587-4.602.865-8.771,1.019-12.26.124-1.761.123-3.336.185-4.725.031-1.39.062-2.594,0-3.583-.062-.988,0-1.698,0-2.316,0-.278.062-.556.155-.803Z" style="fill:#288893;"></path>
  <path d="m518.172,399.188c-.061-3.026-1.173-5.96-3.15-8.276-.586-.865-1.575-1.39-2.625-1.39-1.358.185-1.976,1.822-2.007,3.181-.062,2.316.71,4.601,2.162,6.392,1.266,1.73,3.15,2.903,5.281,3.243" style="fill:#288893;"></path>
  <path d="m515.177,415.772c.185-3.552-.958-9.049-3.058-11.952-.308-.463-.71-.833-1.142-1.142-.463-.309-1.081-.371-1.606-.155-.679.464-1.05,1.267-1.05,2.069-.402,5.25,2.193,10.284,6.701,13.002" style="fill:#288893;"></path>
  <path d="m511.316,429.977c-.371-3.582-1.668-6.979-3.768-9.882-.432-.741-1.111-1.266-1.945-1.451-1.266-.155-2.316,1.142-2.533,2.347-.555,2.532.68,5.126,2.162,7.288,1.39,1.822,3.027,3.428,4.849,4.817" style="fill:#288893;"></path>
  <path d="m507.826,439.953c-.556-2.811-1.729-5.467-3.459-7.752-.37-.494-.834-.926-1.389-1.235-.556-.309-1.236-.247-1.761.092-.772.618-.617,1.853-.278,2.78,1.05,3.212,3.089,6.022,5.837,7.998" style="fill:#288893;"></path>
  <path d="m509.371,435.938c3.181-2.1,6.578-3.892,10.099-5.374.525-.309,1.142-.34,1.6981-.093.371.309.525.803.371,1.236-.154.432-.371.834-.679,1.142-3.15,3.521-7.721,5.436-12.446,5.158" style="fill:#288893;"></path>
  <path d="m513.293,422.72l8.308-5.404c.741-.556,1.606-.988,2.532-1.236.927-.247,1.915.062,2.563.773.494.802.494,1.852,0,2.686-.494.803-1.142,1.483-1.914,2.039-1.73,1.42-3.706,2.532-5.837,3.273-2.131.649-3.984.957-6.022,0" style="fill:#288893;"></path>
  <path d="m517.122,407.711c2.286-3.119,5.374-5.589,8.925-7.133.587-.309,1.205-.433,1.853-.402,1.297.309,2.193,1.482,2.131,2.81-.031,1.452-.679,2.842-1.791,3.799s-2.409,1.668-3.799,2.131c-2.501.895-5.126,1.389-7.782,1.482" style="fill:#288893;"></path>
  <path d="m518.882,393.784c1.915-4.046,5.25-6.918,8.863-9.512.68-.679,1.699-.927,2.625-.679.525.308.865.864.896,1.482.031.587-.062,1.204-.309,1.76-1.884,5.188-6.701,8.74-12.198,9.018" style="fill:#288893;"></path>
  <path d="m519.315,386.526c.958-2.1,1.73-4.261,2.316-6.485.556-2.254.464-4.601-.247-6.794-.308-.957-.864-1.791-1.636-2.44-.772-.648-1.822-.833-2.78-.494-.834.402-1.451,1.174-1.636,2.069-.217.896-.248,1.822-.124,2.718.371,4.385,1.698,9.481,4.107,11.426Z" style="fill:#288893;"></path>
  <path d="m446.464,448.877v10.469c0,2.286,1.853,4.108,4.107,4.108h71.616c2.285,0,4.107-1.853,4.107-4.108v-10.469h-79.83Z" style="fill:#e97e24;"></path>
  <g style="fill:none; opacity:.4;">
    <path d="m452.671,463.454l.587,3.335,66.087,4.725,1.668-8.06h-68.342Z"></path>
  </g>
  <path d="m666.064,136.999l8.956-15.781c-12.26-19.888-6.084-45.9836,13.805-58.2438,19.888-12.2602,45.983-6.0837,58.243,13.8044,12.26,19.888,6.084,45.9834-13.804,58.2434-15.009,9.265-34.156,8.246-48.114-2.532l-19.086,4.509Z" style="fill:#fafafa;"></path>
  <path d="m666.065,136.999l19.116-4.355h.185l-.124-.154-.185.185c2.687,2.069,5.59,3.829,8.678,5.25,3.675,1.637,7.535,2.749,11.519,3.304,2.224.309,4.447.433,6.671.34,1.142,0,2.316-.093,3.458-.185l3.583-.556c10.623-2.1,20.073-8.153,26.373-16.923,3.521-4.88,5.96-10.439,7.134-16.306,1.266-6.238,1.112-12.6619-.402-18.8075-1.605-6.4234-4.694-12.3837-9.048-17.3557l-1.73-1.8838c-.5551-.6485-1.235-1.1427-1.8521-1.7603-.618-.5868-1.236-1.1426-1.915-1.6676l-2.038-1.5133c-.649-.525-1.3589-.9882-2.1-1.3897l-2.131-1.297-2.224-1.1426c-.741-.3706-1.513-.7103-2.316-.9883-6.022-2.3779-12.476-3.3661-18.931-2.9029-6.083.4015-12.044,2.1618-17.386,5.1264-9.605,5.3426-16.769,14.1749-20.043,24.644-1.297,4.447-1.914,9.0793-1.822,13.7423.124,4.015.803,8.03,2.069,11.859,1.05,3.181,2.471,6.238,4.231,9.079v-.123c-5.651,10.129-8.4,15.07-8.832,15.842.463-.772,3.273-5.682,9.048-15.719v-.061c-1.729-2.842-3.119-5.868-4.169-9.049-1.235-3.798-1.914-7.782-2.007-11.766-.062-4.6014.556-9.172,1.853-13.5881,3.2729-10.3764,10.407-19.1161,19.9189-24.3969,5.281-2.9029,11.148-4.6323,17.17-5.0338,6.362-.4632,12.755.525,18.684,2.872.772.278,1.513.6177,2.223.9882l2.193,1.05,2.1,1.2971c.71.4015,1.421.8647,2.069,1.3588l2.008,1.4823c.679.4942,1.266,1.1427,1.883,1.6368.649.4941,1.267,1.1426,1.822,1.7294l1.699,1.8838c4.293,4.9103,7.381,10.8088,8.956,17.1396,1.513,6.0838,1.698,12.4148.494,18.5598-1.174,5.806-3.582,11.303-7.041,16.121-6.238,8.709-15.565,14.7-26.065,16.8l-3.52.556c-1.143.092-2.316.123-3.459.185-2.224.093-4.416,0-6.6089-.309-3.984-.525-7.8441-1.606-11.519-3.212-3.088-1.358-5.991-3.119-8.647-5.157l-.803-.587.618.772.062-.216-18.9,4.602Z" style="fill:#263238;"></path>
  <path d="m722.856,99.1062c0,2.3778,1.915,4.2928,4.293,4.2928s4.293-1.915,4.293-4.2928-1.915-4.2926-4.293-4.2926-4.293,1.9147-4.293,4.2926Z" style="fill:#263238;"></path>
  <path d="m705.687,99.1062c0,2.3778,1.914,4.2928,4.292,4.2928s4.293-1.915,4.293-4.2928-1.915-4.2926-4.293-4.2926-4.292,1.9147-4.292,4.2926Z" style="fill:#263238;"></path>
  <path d="m688.577,96.9755c-1.173,2.0382-.463,4.6635,1.575,5.8365,2.038,1.174,4.663.463,5.837-1.575,1.173-2.038.463-4.663-1.575-5.8365-2.007-1.1735-4.633-.4941-5.837,1.575Z" style="fill:#263238;"></path>
  <path d="m338.902,328.314l18.436,30.573s19.641,32.612,22.729,41.382c3.089,8.771,15.997,84.617,16.028,90.392.062,13.032-13.804,24.737-22.111,24.737s-24.891-7.165-39.344-14.916c-14.453-7.752-41.382-39.066-41.382-39.066l-4.849-67.231-6.3-61.702,56.793-4.169Z" style="fill:#288893;"></path>
  <path d="m334.145,470.619c-.062-.124-.093-.217-.093-.34-.062-.247-.123-.587-.216-.988-.185-.927-.494-2.224-.834-3.891-.71-3.459-1.729-8.308-2.965-14.361l-4.292-21.308c-.803-4.015-1.637-8.215-2.502-12.6-.926-4.509-1.636-9.049-2.1-13.65-.185-2.347-.278-4.694-.247-7.01.031-2.317.186-4.602.309-6.794.124-2.193.216-4.386.185-6.517l-.123-1.575c0-.494-.031-1.019-.093-1.513-.185-1.019-.401-2.007-.71-2.995-1.173-3.675-2.718-7.227-4.601-10.593-1.73-3.212-3.459-6.084-5.127-8.709-3.273-5.25-5.929-9.511-7.566-12.538-.803-1.544-1.421-2.717-1.76-3.582l-.402-.957c-.092-.217-.123-.34-.123-.34.062.092.123.216.185.309.124.216.278.555.463.926.402.834,1.05,2.007,1.853,3.521,1.699,3.026,4.416,7.226,7.721,12.445,1.637,2.625,3.459,5.497,5.188,8.709,1.915,3.397,3.49,6.948,4.694,10.654.309.988.556,2.008.741,3.058.124.525.185,1.05.216,1.575,0,.555.093,1.08.124,1.605,0,2.162,0,4.355-.185,6.578-.186,2.224-.247,4.478-.309,6.763-.031,2.286.062,4.602.247,6.918.432,4.571,1.112,9.11,2.007,13.588.865,4.355,1.699,8.555,2.471,12.6,1.575,8.06,2.995,15.256,4.2,21.34,1.173,6.083,2.131,10.963,2.779,14.391.309,1.667.556,2.995.71,3.922.093.401.124.772.186,1.019-.031.093-.031.216-.031.34Z" style="fill:#263238;"></path>
  <path d="m355.794,364.26c-.278.402-.587.803-.927,1.143-.308.371-.71.803-1.142,1.297-.463.494-1.019,1.05-1.668,1.637-1.482,1.359-3.088,2.625-4.756,3.767-2.069,1.39-4.2,2.625-6.454,3.675-2.254,1.02-4.571,1.884-6.979,2.533-1.946.525-3.953.926-5.961,1.142-.864.124-1.636.186-2.316.217-.587.061-1.173.061-1.76.061-.494.062-.988.062-1.482,0,0-.123,2.13-.123,5.497-.679,1.976-.309,3.922-.741,5.836-1.297,2.347-.679,4.664-1.544,6.918-2.563,2.223-1.05,4.354-2.255,6.393-3.583,1.667-1.111,3.273-2.316,4.786-3.613,2.533-2.223,3.922-3.829,4.015-3.737Z" style="fill:#263238;"></path>
  <g style="fill:none; opacity:.3;">
    <path d="m302.832,343.878c5.621,12.569,10.16,25.571,13.588,38.912,3.274,13.31,4.293,27.454.772,40.672-2.316,8.616-5.373,19.332-1.081,27.145-.37-7.906,1.544-26.589,5.744-30.079,3.737,12.662,7.412,31.53,11.18,44.254-2.811-19.981-8.153-37.275-10.655-57.41-.679-5.466.217-17.788-.555-23.223-2.317-16.46-4.324-14.978-18.962-40.301"></path>
  </g>
  <path d="m323.399,417.563c.092,0-.927,1.853-2.224,4.91-1.698,3.984-2.965,8.153-3.767,12.415-.803,4.262-1.143,8.585-1.02,12.909.093,3.304.371,5.373.248,5.373-.124-.463-.217-.957-.278-1.421-.217-1.297-.34-2.625-.402-3.952-.494-8.771,1.174-17.511,4.818-25.509.71-1.513,1.328-2.718,1.822-3.521.216-.432.494-.833.803-1.204Z" style="fill:#263238;"></path>
  <path d="m134.215,405.982c.123.093-7.659,12.507-17.387,27.763-9.728,15.256-17.7571,27.516-17.9115,27.454-.1235-.092,7.6585-12.507,17.3865-27.763,9.728-15.255,17.788-27.516,17.912-27.454Z" style="fill:#263238;"></path>
  <path d="m111.763,329.487l64.235-11.859,69.207,1.39h17.139l36.688,24.335s6.918,98.267-7.627,129.582c-4.787,10.376-23.811,42.463-23.811,42.463l-143.54.525-36.8421-31.778,13.7421-58.861,10.809-95.797Z" style="fill:#288893;"></path>
  <g style="fill:none; opacity:.3;">
    <path d="m215.403,478.617l-.772-.123c-7.01,5.466-12.106,13.032-14.515,21.586,9.543-.401,17.943-6.979,23.038-15.07,5.096-8.091,7.258-17.572,9.203-26.93-5.065,7.381-10.16,14.824-16.954,20.537Z"></path>
  </g>
  <path d="m12.5082,515.367c-8.4617-2.996-4.478-51.018,16.9234-73.87,2.8102-2.996,50.307-92.184,70.6894-106.698,14.731-10.5,28.195-6.393,31.685,14.514,3.49,20.908,2.501,56.669,2.501,56.669l-35.3906,55.187,10.9326,5.96,37.305,2.501-7.01,45.737H12.5082Z" style="fill:#288893;"></path>
  <path d="m140.175,515.367v-.216l.062-.618c.092-.587.185-1.359.308-2.378.309-2.131.742-5.157,1.267-8.956,1.142-7.689,2.748-18.56,4.601-31.314l.247.308-28.566-3.674-8.369-1.081h-.062l-5.836-3.336c-1.946-1.05-3.675-2.316-5.5591-3.273-3.5515-1.946-7.2573-3.521-11.1176-4.787-3.4588-1.081-7.0103-1.915-10.5926-2.501-3.1191-.464-6.2382-.711-9.3882-.741-4.5396-.062-9.0484.339-13.4954,1.235-1.575.247-2.7486.617-3.5824.772l-.9264.216-.3089.062s.0927,0,.3089-.093l.9264-.278c.803-.216,2.0074-.587,3.5515-.895,4.447-.989,8.9867-1.452,13.5263-1.421,3.1809,0,6.3309.247,9.45.679,3.6132.556,7.1955,1.359,10.6852,2.471,3.8912,1.235,7.6279,2.841,11.2102,4.787,1.9151.957,3.6751,2.316,5.5901,3.273l5.836,3.274h-.123l8.369,1.081,28.566,3.736h.278v.278c-2.008,12.755-3.675,23.594-4.88,31.284-.617,3.798-1.142,6.825-1.451,8.925-.185,1.019-.309,1.791-.402,2.3781,0,.2469-.092.463-.123.617.062.155.031.217,0,.186Z" style="fill:#263238;"></path>
  <path d="m110.898,467.561c-2.008.649-3.953,1.421-5.868,2.316-9.2954,4.509-15.3483,13.835-15.6262,24.181-.0309,2.1.0926,4.2.3397,6.3,0,0-.0618-.124-.1235-.432-.1236-.402-.1853-.803-.278-1.236-.2779-1.513-.4015-3.057-.3706-4.601.0927-10.562,6.2691-20.135,15.8736-24.552,1.42-.648,2.872-1.204,4.385-1.574.525-.155.957-.217,1.235-.278.278-.031.433-.124.433-.124Z" style="fill:#263238;"></path>
  <g style="fill:none; opacity:.3;">
    <path d="m99.1322,460.829c-11.5808-12.507-30.0175-17.726-46.0453-12.044-1.5132.525-3.2735,1.606-3.0264,3.181.2779,2.007,3.0882,2.069,5.0646,1.729,14.9779-2.841,30.4807-.309,43.76,7.165"></path>
  </g>
  <path d="m136.037,382.079s.092-.802.308-2.192c.278-1.977.402-3.984.371-5.96-.062-13.434-7.412-25.787-19.209-32.241-1.729-.958-3.551-1.822-5.435-2.502-.71-.216-1.39-.494-2.069-.772.185,0,.371.062.556.124.525.123,1.05.278,1.575.463,1.914.618,3.767,1.39,5.559,2.347,12.105,6.362,19.61,18.992,19.424,32.642,0,2.008-.216,4.015-.586,5.991-.124.711-.278,1.236-.371,1.606.031.155-.031.34-.123.494Z" style="fill:#263238;"></path>
  <path d="m293.597,362.932c.031.093.062.217.092.34l.186,1.019c.154.927.37,2.224.679,3.891.556,3.397,1.359,8.277,2.224,14.361.864,6.083,1.822,13.31,2.501,21.432.772,8.77,1.019,17.603.71,26.404-.339,8.801-1.482,17.572-3.397,26.188-1.575,7.041-3.798,13.897-6.701,20.475-1.946,4.447-4.262,8.74-6.918,12.816-.895,1.482-1.729,2.501-2.223,3.274-.247.339-.463.617-.618.833-.062.093-.123.186-.216.278,0,0,0-.123.185-.309l.556-.864c.463-.772,1.266-1.822,2.131-3.305,2.563-4.107,4.787-8.4,6.701-12.847,2.842-6.577,5.034-13.433,6.578-20.444,1.884-8.585,2.996-17.324,3.336-26.095.71-18.715-1.452-35.576-3.027-47.713-.865-6.053-1.544-10.963-2.038-14.391-.216-1.668-.402-2.995-.556-3.922l-.123-1.019c-.062-.185-.062-.309-.062-.402Z" style="fill:#263238;"></path>
  <path d="m331.15,511.537h-160.248v11.365h160.248v-11.365Z" style="fill:#ebebeb;"></path>
  <path d="m369.505,495.201l-164.756,4.107-27.114,7.968-6.733,4.261h160.248l14.298,4.664,20.444-6.084,3.613-14.916Z" style="fill:#fff;"></path>
  <path d="m331.15,511.537s17.788,2.749,24.767,0c6.979-2.748,13.557-16.305,13.557-16.305l.772,20.999-39.158,6.702.062-11.396Z" style="fill:#e0e0e0;"></path>
  <path d="m331.119,511.445c.309,1.914.432,3.829.34,5.744.123,1.914.031,3.86-.247,5.744-.309-1.915-.433-3.83-.34-5.744-.123-1.884-.031-3.83.247-5.744Z" style="fill:#263238;"></path>
  <path d="m368.734,497.517c0,.154-.031.309-.093.432-.123.402-.247.772-.401,1.143-.587,1.451-1.359,2.81-2.316,4.045-3.181,4.108-7.597,7.103-12.6,8.555-4.972,1.359-10.161,1.729-15.256,1.05-1.946-.216-3.521-.494-4.602-.741-.555-.093-1.111-.217-1.667-.433.556.031,1.142.093,1.698.186,1.081.154,2.656.37,4.602.555,5.034.556,10.16.155,15.07-1.142,4.88-1.421,9.203-4.293,12.446-8.215,1.235-1.668,2.285-3.52,3.119-5.435Z" style="fill:#263238;"></path>
  <path d="m354.374,513.884c-.989.4641-2.039.834-3.119,1.0811-5.096,1.421-10.377,2.224-15.658,2.378-1.111.093-2.192.062-3.304-.093,1.081-.185,2.162-.308,3.273-.308,2.008-.155,4.787-.433,7.845-.896,3.057-.463,5.744-1.05,7.751-1.482,1.05-.309,2.131-.525,3.212-.6801Z" style="fill:#263238;"></path>
  <path d="m353.694,518.424c-1.05.247-2.1.432-3.181.463-1.976.185-4.725.402-7.751.494-3.026.093-5.744.062-7.751,0-1.081.031-2.162-.092-3.212-.278,1.081-.123,2.131-.185,3.212-.123,2.007,0,4.725-.062,7.751-.155,3.026-.092,5.744-.216,7.751-.308,1.05-.155,2.131-.155,3.181-.093Z" style="fill:#263238;"></path>
  <path d="m323.615,523.489c-.834-.155-1.606-.587-2.162-1.236-2.687-2.439-2.872-6.578-.463-9.264.463-.525,1.019-.958,1.606-1.297.71-.495,1.544-.742,2.377-.711-.741.309-1.451.68-2.161,1.081-1.575,1.081-2.656,2.78-2.903,4.694-.185,1.915.494,3.83,1.822,5.219.587.556,1.204,1.05,1.884,1.514Z" style="fill:#263238;"></path>
  <path d="m322.04,523.983c-.772-.185-1.513-.587-2.069-1.1429-3.119-2.563-3.644-7.164-1.142-10.376.432-.649,1.05-1.205,1.76-1.544.062.092-.649.617-1.39,1.76-2.1,3.088-1.606,7.257,1.143,9.79.926,1.08,1.76,1.451,1.698,1.513Z" style="fill:#263238;"></path>
  <path d="m313.609,523.489c-.833-.155-1.606-.587-2.161-1.236-2.687-2.439-2.903-6.578-.464-9.264.464-.525,1.019-.958,1.637-1.297.71-.495,1.544-.742,2.378-.711-.741.309-1.451.68-2.162,1.081-2.995,1.884-3.891,5.868-1.976,8.863.247.371.525.742.834,1.05.556.556,1.204,1.05,1.914,1.514Z" style="fill:#263238;"></path>
  <path d="m312.034,523.983c-.772-.185-1.514-.587-2.07-1.1429-3.119-2.563-3.644-7.164-1.142-10.376.432-.68,1.05-1.205,1.76-1.544.062.092-.648.617-1.42,1.76-2.1,3.088-1.606,7.257,1.142,9.79.958,1.08,1.791,1.451,1.73,1.513Z" style="fill:#263238;"></path>
  <path d="m303.604,523.489c-.834-.155-1.606-.587-2.162-1.236-2.687-2.439-2.903-6.578-.463-9.264.463-.525,1.019-.958,1.636-1.297.711-.495,1.544-.742,2.378-.711-.741.309-1.451.68-2.162,1.081-2.995,1.884-3.891,5.868-1.976,8.863.247.371.525.742.834,1.05.556.556,1.204,1.05,1.915,1.514Z" style="fill:#263238;"></path>
  <path d="m302.029,523.983c-.772-.185-1.514-.587-2.069-1.1429-3.119-2.563-3.644-7.164-1.143-10.376.432-.68,1.05-1.205,1.76-1.544.062.092-.648.617-1.42,1.76-2.1,3.088-1.606,7.257,1.142,9.79.958,1.08,1.791,1.451,1.73,1.513Z" style="fill:#263238;"></path>
  <path d="m293.598,523.489c-.834-.155-1.606-.587-2.162-1.236-2.687-2.439-2.903-6.578-.463-9.264.463-.525,1.019-.958,1.636-1.297.711-.495,1.545-.742,2.378-.711-.741.309-1.451.68-2.161,1.081-2.996,1.884-3.892,5.806-2.008,8.802.247.401.525.772.865,1.08.587.587,1.235,1.1121,1.915,1.545Z" style="fill:#263238;"></path>
  <path d="m292.022,523.983c-.772-.185-1.482-.587-2.038-1.1429-3.119-2.563-3.644-7.164-1.143-10.376.433-.68,1.05-1.205,1.761-1.544.061.092-.649.617-1.421,1.76-2.1,3.088-1.606,7.257,1.143,9.79.926,1.08,1.76,1.451,1.698,1.513Z" style="fill:#263238;"></path>
  <path d="m283.592,523.489c-.834-.155-1.606-.587-2.162-1.236-2.686-2.439-2.872-6.578-.463-9.264.463-.525,1.019-.958,1.606-1.297.71-.495,1.544-.742,2.378-.711-.741.309-1.451.68-2.162,1.081-2.995,1.884-3.891,5.806-2.007,8.802.247.401.525.772.865,1.08.617.587,1.266,1.1121,1.945,1.545Z" style="fill:#263238;"></path>
  <path d="m282.017,523.983c-.772-.185-1.482-.587-2.038-1.1429-1.482-1.235-2.44-3.026-2.687-4.941-.185-1.915.34-3.86,1.513-5.404.433-.649,1.05-1.205,1.761-1.544.062.092-.649.617-1.421,1.76-2.1,3.088-1.637,7.257,1.081,9.789,1.019,1.05,1.853,1.421,1.791,1.483Z" style="fill:#263238;"></path>
  <path d="m273.586,523.489c-.833-.155-1.606-.587-2.161-1.236-2.687-2.439-2.872-6.578-.464-9.264.464-.525,1.019-.958,1.606-1.297.711-.495,1.544-.742,2.378-.711-.741.309-1.451.68-2.162,1.081-2.995,1.884-3.891,5.806-2.007,8.802.247.401.525.772.865,1.08.617.587,1.266,1.1121,1.945,1.545Z" style="fill:#263238;"></path>
  <path d="m272.01,523.983c-.772-.185-1.482-.587-2.038-1.1429-3.119-2.563-3.613-7.164-1.143-10.376.433-.649,1.05-1.205,1.761-1.544.061.092-.649.617-1.421,1.76-2.1,3.088-1.637,7.257,1.081,9.79.988,1.08,1.822,1.451,1.76,1.513Z" style="fill:#263238;"></path>
  <path d="m263.58,523.489c-.833-.155-1.605-.587-2.161-1.236-2.687-2.439-2.872-6.578-.463-9.264.463-.525,1.019-.958,1.605-1.297.711-.495,1.544-.742,2.378-.711-.741.309-1.451.68-2.161,1.081-2.996,1.884-3.892,5.868-1.977,8.863.247.371.525.742.834,1.05.618.556,1.266,1.0811,1.945,1.514Z" style="fill:#263238;"></path>
  <path d="m262.004,523.983c-.772-.185-1.482-.587-2.038-1.1429-3.119-2.563-3.613-7.164-1.142-10.376.432-.649,1.05-1.205,1.76-1.544.062.092-.649.617-1.421,1.76-.988,1.513-1.42,3.304-1.266,5.096.216,1.791,1.019,3.458,2.316,4.694,1.019,1.08,1.853,1.451,1.791,1.513Z" style="fill:#263238;"></path>
  <path d="m253.575,523.489c-.834-.155-1.606-.587-2.162-1.236-2.687-2.439-2.872-6.578-.463-9.264.463-.525,1.019-.958,1.606-1.297.71-.495,1.544-.742,2.377-.711-.741.309-1.451.68-2.161,1.081-2.996,1.884-3.891,5.868-1.977,8.863.247.371.525.742.834,1.05.618.556,1.266,1.0811,1.946,1.514Z" style="fill:#263238;"></path>
  <path d="m251.999,523.983c-.772-.185-1.513-.587-2.069-1.1429-3.119-2.563-3.613-7.164-1.143-10.376.433-.649,1.05-1.205,1.761-1.544.061.092-.649.617-1.421,1.76-2.069,3.119-1.606,7.257,1.143,9.79.957,1.08,1.791,1.451,1.729,1.513Z" style="fill:#263238;"></path>
  <path d="m243.569,523.489c-.834-.155-1.606-.587-2.162-1.236-2.687-2.439-2.872-6.578-.463-9.264.463-.525,1.019-.958,1.606-1.297.71-.495,1.544-.742,2.378-.711-.742.309-1.452.68-2.162,1.081-2.996,1.884-3.891,5.868-1.977,8.863.247.371.525.742.834,1.05.618.556,1.266,1.05,1.946,1.514Z" style="fill:#263238;"></path>
  <path d="m242.024,523.983c-.772-.185-1.513-.587-2.069-1.1429-3.119-2.563-3.644-7.164-1.143-10.376.432-.649,1.05-1.205,1.76-1.544.062.092-.648.617-1.389,1.76-2.1,3.088-1.637,7.257,1.081,9.79.988,1.08,1.791,1.451,1.76,1.513Z" style="fill:#263238;"></path>
  <path d="m233.593,523.489c-.834-.155-1.606-.587-2.162-1.236-2.687-2.439-2.903-6.578-.463-9.264.463-.525,1.019-.958,1.637-1.297.71-.495,1.544-.742,2.377-.711-.741.309-1.451.68-2.161,1.081-2.996,1.884-3.891,5.868-1.977,8.863.247.371.525.742.834,1.05.556.556,1.204,1.05,1.915,1.514Z" style="fill:#263238;"></path>
  <path d="m232.018,523.983c-.772-.185-1.513-.587-2.069-1.1429-3.119-2.563-3.644-7.164-1.143-10.376.433-.68,1.05-1.205,1.761-1.544,0,.092-.649.617-1.421,1.76-2.1,3.088-1.606,7.257,1.143,9.79.988,1.08,1.76,1.451,1.729,1.513Z" style="fill:#263238;"></path>
  <path d="m223.557,523.489c-.834-.155-1.606-.587-2.162-1.236-2.687-2.439-2.903-6.578-.463-9.264.463-.525,1.019-.958,1.636-1.297.711-.495,1.545-.742,2.378-.711-.741.309-1.451.68-2.161,1.081-2.996,1.884-3.892,5.837-2.008,8.832.247.402.525.742.834,1.081.618.556,1.266,1.05,1.946,1.514Z" style="fill:#263238;"></path>
  <path d="m222.012,523.983c-.772-.185-1.513-.587-2.069-1.1429-3.119-2.563-3.644-7.164-1.143-10.376.433-.68,1.05-1.205,1.761-1.544.061.092-.649.617-1.421,1.76-2.1,3.088-1.606,7.257,1.143,9.79.957,1.08,1.791,1.451,1.729,1.513Z" style="fill:#263238;"></path>
  <path d="m213.551,523.489c-.834-.155-1.606-.587-2.162-1.236-2.687-2.439-2.903-6.578-.463-9.264.463-.525,1.019-.958,1.637-1.297.71-.495,1.544-.742,2.377-.711-.741.309-1.451.68-2.161,1.081-2.996,1.884-3.891,5.806-2.008,8.802.247.401.525.772.865,1.08.587.587,1.235,1.1121,1.915,1.545Z" style="fill:#263238;"></path>
  <path d="m212.006,523.983c-.772-.185-1.482-.587-2.038-1.1429-1.482-1.235-2.439-3.026-2.686-4.941-.186-1.946.339-3.86,1.513-5.404.432-.68,1.05-1.205,1.76-1.544.062.092-.649.617-1.421,1.76-2.1,3.088-1.605,7.257,1.143,9.789.957,1.05,1.76,1.421,1.729,1.483Z" style="fill:#263238;"></path>
  <path d="m203.546,523.489c-.865-.155-1.637-.587-2.224-1.236-2.687-2.439-2.872-6.578-.463-9.264.463-.525,1.019-.958,1.606-1.297.71-.495,1.544-.742,2.378-.711-.742.309-1.452.68-2.162,1.081-2.996,1.884-3.891,5.806-2.007,8.802.247.401.525.772.864,1.08.649.587,1.328,1.1121,2.008,1.545Z" style="fill:#263238;"></path>
  <path d="m202.001,523.983c-.772-.185-1.483-.587-2.039-1.1429-1.482-1.235-2.439-3.026-2.686-4.941-.186-1.915.339-3.86,1.513-5.404.432-.649,1.05-1.205,1.76-1.544.062.092-.648.617-1.42,1.76-2.1,3.088-1.606,7.257,1.142,9.789.958,1.05,1.76,1.421,1.73,1.483Z" style="fill:#263238;"></path>
  <path d="m193.539,523.489c-.833-.155-1.605-.587-2.161-1.236-2.687-2.439-2.872-6.578-.464-9.264.464-.525,1.02-.958,1.606-1.297.711-.495,1.544-.742,2.378-.711-.741.309-1.451.68-2.161,1.081-2.996,1.884-3.892,5.868-1.977,8.863.247.371.525.742.834,1.05.618.556,1.266,1.0811,1.945,1.514Z" style="fill:#263238;"></path>
  <path d="m191.995,523.983c-.772-.185-1.483-.587-2.039-1.1429-3.119-2.563-3.613-7.164-1.142-10.376.432-.649,1.05-1.205,1.76-1.544.062.092-.649.617-1.421,1.76-2.069,3.119-1.575,7.257,1.143,9.79.927,1.08,1.729,1.451,1.699,1.513Z" style="fill:#263238;"></path>
  <path d="m183.534,523.489c-.834-.155-1.606-.587-2.162-1.236-2.687-2.439-2.872-6.578-.463-9.264.463-.525,1.019-.958,1.606-1.297.71-.495,1.544-.742,2.377-.711-.741.309-1.451.68-2.161,1.081-2.996,1.884-3.891,5.868-1.977,8.863.247.371.525.742.834,1.05.618.556,1.266,1.0811,1.946,1.514Z" style="fill:#263238;"></path>
  <path d="m181.99,523.983c-.772-.185-1.483-.587-2.038-1.1429-3.12-2.563-3.614-7.164-1.143-10.376.432-.649,1.05-1.205,1.76-1.544.062.092-.648.617-1.42,1.76-.989,1.513-1.421,3.304-1.267,5.096.217,1.791,1.05,3.458,2.347,4.694.989,1.08,1.792,1.451,1.761,1.513Z" style="fill:#263238;"></path>
  <path d="m173.527,523.489c-.834-.186-1.575-.618-2.131-1.236-2.686-2.439-2.872-6.578-.463-9.264.463-.525,1.019-.958,1.606-1.297.71-.495,1.544-.742,2.378-.711-.741.309-1.452.68-2.162,1.081-2.995,1.884-3.891,5.868-1.976,8.863.247.371.525.742.833,1.05.618.556,1.236,1.05,1.915,1.514Z" style="fill:#263238;"></path>
  <path d="m171.984,523.983c-.773-.185-1.514-.587-2.07-1.1429-3.119-2.563-3.613-7.164-1.142-10.376.432-.649,1.05-1.205,1.76-1.544.062.092-.648.617-1.39,1.76-2.1,3.088-1.606,7.257,1.143,9.79.926,1.08,1.729,1.451,1.699,1.513Z" style="fill:#263238;"></path>
  <path d="m147.927,434.98c14.113,13.588,63.988,61.332,63.988,61.332l10.068,3.706-3.119-10.407-63.803-62.011c-2.038-1.977-5.281-1.946-7.288.092,0,0-.031.031-.031.062-1.946,2.007-1.853,5.25.185,7.226Z" style="fill:#e97e24;"></path>
  <path d="m217.905,483.126l-14.978-19.024-29.122-7.751-27.083,17.448-5.559,35.762s5.96,0,8.863-.216c1.915-.124,16.522-2.039,16.522-2.039,0,0,12.137-.154,17.603-1.327,5.466-1.174,7.473-3.614,11.365-3.614s4.879-4.478,4.879-4.478c2.471-.803,4.848-1.883,7.072-3.211,2.841-1.853,2.841-6.208,2.841-6.208,0,0,1.513.68,5.374,0,3.891-.617,2.223-5.342,2.223-5.342Z" style="fill:#ffbe9d;"></path>
  <path d="m210.678,487.573c-.339-.278-.648-.618-.895-.988l-2.316-2.749c-2.471-3.088-5.497-5.62-8.956-7.535-3.552-1.699-7.35-2.903-11.241-3.582l-3.521-.68c-.432-.062-.865-.154-1.297-.309.432-.031.896,0,1.328.093.834.093,2.069.247,3.582.494,3.953.556,7.814,1.73,11.427,3.459,3.52,1.945,6.609,4.601,9.017,7.813.958,1.143,1.668,2.193,2.162,2.903.309.309.525.679.71,1.081Z" style="fill:#eb996e;"></path>
  <path d="m202.279,495.54c-.432-1.142-1.142-2.131-2.069-2.934-1.698-1.482-4.786-2.377-7.998-3.674-3.212-1.328-6.177-2.471-8.277-3.367-1.173-.432-2.285-.926-3.366-1.544,1.205.278,2.378.68,3.521,1.143,2.131.772,5.095,1.915,8.338,3.181,1.606.648,3.15,1.235,4.602,1.822,1.266.494,2.439,1.204,3.458,2.1.68.617,1.236,1.389,1.575,2.254.186.34.247.68.216,1.019Z" style="fill:#eb996e;"></path>
  <path d="m193.909,501.408c-.864-.031-1.729-.154-2.594-.402-1.575-.308-3.737-.864-6.115-1.575-2.347-.71-4.447-1.451-5.96-2.038-.834-.278-1.637-.679-2.378-1.142.865.154,1.699.37,2.533.679,1.544.494,3.644,1.143,5.991,1.853,2.347.71,4.478,1.297,6.022,1.729.864.217,1.698.525,2.501.896Z" style="fill:#eb996e;"></path>
  <path d="m229.98,499.987c-.587.525-1.267.958-1.977,1.328-1.266.741-3.026,1.73-5.034,2.749-2.007,1.019-3.829,1.884-5.188,2.47-.71.371-1.451.649-2.223.803,2.316-1.389,4.694-2.686,7.133-3.829,2.347-1.297,4.787-2.471,7.289-3.521Z" style="fill:#263238;"></path>
  <path d="m238.04,499.308c-2.409,1.699-4.941,3.243-7.597,4.601-2.532,1.545-5.157,2.903-7.875,4.077,2.44-1.699,4.972-3.243,7.597-4.602,2.533-1.513,5.158-2.872,7.875-4.076Z" style="fill:#263238;"></path>
  <path d="m240.912,499.802c-1.76,1.544-3.644,2.934-5.651,4.169-1.884,1.39-3.891,2.594-5.991,3.644,1.76-1.544,3.644-2.933,5.651-4.169,1.884-1.358,3.891-2.594,5.991-3.644Z" style="fill:#263238;"></path>
  <path d="m255.458,499.308c-2.378,1.822-4.879,3.459-7.474,4.941-2.501,1.637-5.095,3.119-7.782,4.447,2.378-1.822,4.88-3.459,7.474-4.941,2.501-1.637,5.095-3.119,7.782-4.447Z" style="fill:#263238;"></path>
  <path d="m260.554,499.555c.062.154-3.274,1.822-7.196,4.262-3.891,2.439-6.856,4.694-6.979,4.601.525-.648,1.143-1.204,1.822-1.668,1.544-1.235,3.181-2.408,4.848-3.458,1.668-1.05,3.428-2.008,5.22-2.842.71-.401,1.482-.71,2.285-.895Z" style="fill:#263238;"></path>
  <path d="m266.019,498.906c-2.13,1.761-4.416,3.367-6.763,4.818-2.254,1.606-4.632,3.057-7.103,4.324,2.131-1.761,4.416-3.336,6.794-4.787,2.224-1.606,4.602-3.088,7.072-4.355Z" style="fill:#263238;"></path>
  <path d="m273.432,497.949c-2.285,1.884-4.694,3.613-7.196,5.158-2.408,1.698-4.91,3.242-7.535,4.601,2.285-1.884,4.694-3.613,7.196-5.157,2.409-1.699,4.941-3.243,7.535-4.602Z" style="fill:#263238;"></path>
  <path d="m282.881,497.671c.093.155-2.903,2.038-6.331,4.725-3.428,2.687-5.991,5.127-6.114,4.972.432-.648.957-1.235,1.544-1.76,1.328-1.328,2.748-2.563,4.2-3.706,1.482-1.143,2.995-2.224,4.601-3.181.649-.432,1.328-.803,2.1-1.05Z" style="fill:#263238;"></path>
  <path d="m287.05,498.505c.092.124-2.625,2.131-5.744,4.787-3.15,2.656-5.621,4.941-5.744,4.848,3.242-3.86,7.133-7.103,11.488-9.635Z" style="fill:#263238;"></path>
  <path d="m296.007,498.505c.092.124-2.625,2.131-5.744,4.787-3.15,2.656-5.621,4.941-5.744,4.848,1.575-1.976,3.366-3.767,5.373-5.311,1.822-1.699,3.891-3.15,6.115-4.324Z" style="fill:#263238;"></path>
  <path d="m302.738,498.505c.093.124-2.625,2.131-5.744,4.787-3.15,2.656-5.62,4.941-5.744,4.848,1.575-1.976,3.366-3.767,5.373-5.311,1.853-1.699,3.923-3.15,6.115-4.324Z" style="fill:#263238;"></path>
  <path d="m306.228,498.505c.093.124-2.625,2.131-5.744,4.787-3.15,2.656-5.62,4.941-5.744,4.848,3.243-3.86,7.134-7.103,11.488-9.635Z" style="fill:#263238;"></path>
  <path d="m318.518,498.134c.093.124-2.625,2.131-5.744,4.787-3.15,2.656-5.62,4.972-5.744,4.849,1.575-1.977,3.366-3.768,5.374-5.312,1.822-1.699,3.891-3.15,6.114-4.324Z" style="fill:#263238;"></path>
  <path d="m330.811,497.795c.093.154-2.625,2.131-5.744,4.786-3.15,2.656-5.62,4.942-5.744,4.818,1.575-1.976,3.366-3.737,5.374-5.281,1.822-1.667,3.891-3.119,6.114-4.323Z" style="fill:#263238;"></path>
  <path d="m343.101,497.517c.093.123-2.625,2.131-5.744,4.787-3.15,2.655-5.62,4.941-5.744,4.848,1.575-1.976,3.366-3.768,5.374-5.312,1.822-1.698,3.891-3.15,6.114-4.323Z" style="fill:#263238;"></path>
  <path d="m355.362,497.115c.093.124-2.625,2.131-5.744,4.787-3.15,2.656-5.62,4.972-5.744,4.848,3.243-3.86,7.134-7.102,11.488-9.635Z" style="fill:#263238;"></path>
  <path d="m294.464,250.688c12.253-12.253,12.253-32.119,0-44.372-12.253-12.254-32.12-12.254-44.373,0-12.253,12.253-12.253,32.119,0,44.372,12.253,12.253,32.12,12.253,44.373,0Z" style="fill:#e97e24;"></path>
  <path d="m282.634,200.307s5.219,51.975,5.868,87.273l2.316,41.66s-24.459-7.782-49.164-6.609l-19.981-51.171,60.961-71.153Z" style="fill:#263238;"></path>
  <path d="m144.499,209.387c4.725-21.865,9.542-44.594,27.361-58.151,15.843-12.075,33.755-15.256,53.674-14.114,9.789.556,20.783,5.22,29.276,10.192,11.611,6.794,16.367,20.289,21.864,32.611,10.963,24.613,9.049,57.719,1.266,66.798l-102.961,52.469c-17.942-9.666-29.986-14.237-34.557-34.125-3.088-13.557,1.143-42.123,4.077-55.68Z" style="fill:#263238;"></path>
  <path d="m173.775,171.432l64.574-18.066c20.722-2.717,35.237,22.575,37.09,43.421,2.038,23.192,3.613,51.542,1.328,68.929-4.633,34.989-31.253,40.085-31.253,40.085,0,0-.062.525,0,10.87l.618,23.285c-8.061,28.412-36.75,25.54-74.704-20.166l-7.783-127.419c-.555-10.006,3.799-20.105,10.13-20.939Z" style="fill:#ffbe9d;"></path>
  <path d="m269.602,225.445c.062,2.409-1.791,4.447-4.2,4.602-2.347.247-4.447-1.452-4.694-3.799v-.123c-.092-2.409,1.792-4.447,4.2-4.602,2.347-.247,4.447,1.483,4.694,3.83v.092Z" style="fill:#263238;"></path>
  <path d="m269.756,217.694c-.556.587-3.984-1.822-8.802-1.699-4.817.124-8.276,2.625-8.801,2.038-.278-.247.278-1.327,1.791-2.47,2.038-1.482,4.509-2.285,7.01-2.316,2.502-.062,4.941.648,7.011,2.069,1.544,1.081,2.069,2.131,1.791,2.378Z" style="fill:#263238;"></path>
  <path d="m224.174,225.445c.092,2.409-1.761,4.478-4.2,4.602-2.347.247-4.447-1.452-4.694-3.799v-.123c-.093-2.409,1.76-4.478,4.2-4.602,2.347-.247,4.447,1.452,4.694,3.799-.031.031,0,.093,0,.123Z" style="fill:#263238;"></path>
  <path d="m222.506,217.601c-.556.587-3.984-1.822-8.802-1.698-4.786.123-8.276,2.625-8.801,2.038-.278-.247.278-1.328,1.791-2.471,2.038-1.482,4.509-2.285,7.01-2.316,2.502-.062,4.941.649,7.011,2.069,1.513,1.081,2.069,2.131,1.791,2.378Z" style="fill:#263238;"></path>
  <path d="m240.757,249.008c0-.278,2.934-.864,7.783-1.606,1.235-.154,2.377-.432,2.563-1.266.185-.834-.278-2.223-.896-3.613l-3.86-9.203c-5.374-13.186-9.296-24.026-8.771-24.18.525-.155,5.312,10.283,10.686,23.47,1.297,3.243,2.532,6.331,3.705,9.326.495,1.39,1.328,2.934.773,4.787-.34.896-1.05,1.575-1.977,1.853-.679.185-1.39.309-2.069.34-4.879.278-7.906.37-7.937.092Z" style="fill:#263238;"></path>
  <path d="m245.514,305.801c-16.398.679-32.642-3.243-46.941-11.272,0,0,12.137,24.088,46.91,19.95l.031-8.678Z" style="fill:#eb996e;"></path>
  <path d="m225.131,258.366c1.359-2.193,3.737-3.583,6.331-3.645,3.613-.339,7.165,1.297,9.203,4.293.834.957.834,3.737.525,4.509-.309.772,0,.401-.648.926-2.1,1.946-4.324,3.891-7.072,4.602-2.996.834-6.208-.247-8.061-2.718-1.575-2.378-1.667-5.466-.278-7.967Z" style="fill:#eb996e;"></path>
  <path d="m225.842,252.899c.772-.061.957,5.158,5.528,8.709,4.57,3.583,10.098,2.811,10.191,3.552.092.308-1.143,1.05-3.552,1.142-3.057.155-6.053-.803-8.492-2.686-2.316-1.792-3.861-4.417-4.293-7.319-.278-2.131.309-3.428.618-3.398Z" style="fill:#263238;"></path>
  <path d="m224.575,200.029c-.37,1.359-5.188,1.143-10.747,2.316-5.558,1.143-9.975,3.058-10.839,1.946-.371-.525.309-1.822,2.038-3.243,4.694-3.551,10.778-4.725,16.46-3.211,2.1.648,3.243,1.575,3.088,2.192Z" style="fill:#263238;"></path>
  <path d="m269.54,204.785c-1.143.927-4.602-.772-8.956-1.544-4.354-.772-8.245-.556-8.925-1.822-.278-.587.463-1.575,2.316-2.316,2.409-.927,5.065-1.112,7.597-.618,2.533.432,4.911,1.575,6.825,3.305,1.328,1.327,1.637,2.532,1.143,2.995Z" style="fill:#263238;"></path>
  <path d="m237.516,149.599c.061.247.092.494.154.772h-.123c0-.216-.031-.494-.031-.772Z" style="fill:#263238;"></path>
  <path d="m169.574,318.864c.587.308,1.853,35.977,6.486,51.295,1.636,5.435,18.992,5.373,18.992,5.373,2.038,0-2.038-68.465-2.934-83.814-.586-9.728-11.642-23.841-14.082-33.26-3.891-15.07,1.915-24.458,4.2-39.93,8.74-.958,21.525-6.825,27.423-13.527,7.103-8.06,11.458-18.066,15.719-27.917-.401,9.789-3.86,19.178-9.851,26.929,3.86.865,7.968-.741,10.901-3.366,2.842-2.78,5.065-6.115,6.516-9.79,3.892-8.77,6.115-18.158,6.578-27.763,1.112,13.743-.648,27.547-5.126,40.579,2.44-.71,5.034,0,7.566.402,2.532.401,5.404.37,7.226-1.421,1.112-1.297,1.823-2.903,2.039-4.601,2.563-11.612,3.119-23.594,1.667-35.422,2.996,6.393,5.991,12.878,7.69,19.734,1.699,6.886,2.069,14.205-.154,20.938.988,1.297,3.119,1.142,4.323,0,1.112-1.205,1.791-2.718,1.946-4.355.988-5.836,0-11.828-.896-17.664,3.397,6.207,4.447,13.403,6.269,20.228,1.822,6.855,4.787,13.866,10.654,17.849,1.143-8.894.958-17.88-.494-26.744-1.081-7.319-4.447-14.607-7.535-21.308-3.459-7.505-8.338-14.885-13.804-19.827-10.13-9.141-14.484-5.311-21.062-2.007l-.772.309v-.494l-.278-1.39c-17.108-4.076-35.02-3.52-51.82,1.668-12.415,3.86-27.763,16.336-34.217,27.639-.124.216-.247.402-.371.649-13.804,27.485-30.666,94.931-29.554,149.593l16.584-3.057,30.171-5.528Z" style="fill:#263238;"></path>
  <path d="m156.542,267.816c17.329,0,31.376-14.048,31.376-31.377s-14.047-31.376-31.376-31.376-31.376,14.048-31.376,31.376,14.048,31.377,31.376,31.377Z" style="fill:#e97e24;"></path>
  <path d="m155.986,205.032s1.544-64.76,58.522-73.19c0,0,28.937-2.317,32.859,11.519,0,0-14.855-8.061-29.616-4.2-9.728,2.532-45.243,18.313-46.91,71.059l-14.669,6.331-.186-11.519Z" style="fill:#e97e24;"></path>
  <path d="m178.808,236.254v-.371c0-.247,0-.648-.092-1.08-.031-.587-.093-1.174-.217-1.761-.123-.803-.278-1.606-.494-2.378-.556-2.131-1.42-4.2-2.563-6.083-1.513-2.502-3.49-4.695-5.837-6.455-2.81-2.131-6.114-3.582-9.604-4.231-4.015-.741-8.122-.401-11.951.989-2.07.741-4.015,1.791-5.744,3.088-.896.679-1.761,1.42-2.595,2.192-.803.834-1.544,1.699-2.223,2.625-2.872,3.892-4.416,8.616-4.416,13.434.031,2.44.401,4.849,1.142,7.165.742,2.254,1.822,4.354,3.243,6.269,1.328,1.853,2.965,3.49,4.818,4.848,1.76,1.328,3.705,2.378,5.744,3.089,7.257,2.655,15.379,1.451,21.555-3.243,2.347-1.76,4.324-3.953,5.837-6.454,1.143-1.884,2.007-3.922,2.532-6.053.217-.772.371-1.575.495-2.378.123-.587.185-1.174.216-1.761,0-.463.062-.802.092-1.08.031-.278,0-.371,0-.371.031.124.031.247,0,.371v1.08c0,.587-.03,1.174-.154,1.761-.093.803-.216,1.606-.432,2.409-.525,2.192-1.359,4.261-2.502,6.207-3.366,5.744-9.048,9.759-15.564,11.025-4.108.772-8.308.432-12.23-.988-2.131-.742-4.107-1.823-5.898-3.15-.927-.68-1.822-1.452-2.656-2.255-.834-.834-1.606-1.76-2.316-2.717-1.452-1.946-2.594-4.108-3.335-6.424-1.606-4.787-1.606-9.944,0-14.731.772-2.316,1.883-4.478,3.335-6.423.71-.958,1.482-1.853,2.316-2.718.834-.803,1.729-1.544,2.656-2.254,1.791-1.359,3.798-2.409,5.898-3.15,3.922-1.421,8.153-1.76,12.23-.988,3.551.679,6.917,2.192,9.789,4.385,2.378,1.791,4.355,4.045,5.837,6.609,1.143,1.914,2.007,4.014,2.501,6.207.217.803.34,1.606.433,2.409.092.586.154,1.173.154,1.76v1.575Z" style="fill:#263238;"></path>
  <path d="m163.182,226.804c.124.124-3.984,4.416-9.203,9.605-5.219,5.188-9.481,9.295-9.604,9.202-.124-.092,3.984-4.416,9.203-9.604,5.219-5.188,9.48-9.326,9.604-9.203Z" style="fill:#263238;"></path>
  <path d="m159.569,234.988c-.989,1.39-2.162,2.687-3.459,3.798-1.174,1.267-2.471,2.409-3.891,3.367,2.161-2.656,4.632-5.065,7.35-7.165Z" style="fill:#263238;"></path>
  <path d="m235.447,224.766c-.124-1.637-.371-3.305-.741-4.91-.495-1.884-1.267-3.675-2.317-5.312-1.327-2.193-3.057-4.108-5.126-5.652-2.471-1.883-5.343-3.15-8.4-3.705-3.52-.649-7.103-.34-10.469.895-1.822.649-3.521,1.544-5.034,2.718-1.636,1.173-3.057,2.594-4.2,4.231-5.157,7.01-5.157,16.552,0,23.532,1.174,1.637,2.594,3.057,4.2,4.231,1.544,1.173,3.243,2.069,5.034,2.717,3.335,1.205,6.949,1.513,10.469.896,3.057-.556,5.929-1.822,8.4-3.706,2.069-1.544,3.799-3.49,5.126-5.682,1.02-1.637,1.792-3.428,2.317-5.312.401-1.668.648-3.304.741-4.941.031.092.031.185,0,.309v.957c0,.525-.031,1.05-.124,1.575-.092.71-.216,1.421-.401,2.1-.463,1.915-1.174,3.737-2.193,5.435-2.965,5.065-7.967,8.585-13.712,9.697-3.582.68-7.319.402-10.746-.865-1.853-.648-3.614-1.574-5.189-2.779-1.667-1.204-3.15-2.656-4.354-4.354-5.312-7.196-5.312-16.985,0-24.181.618-.834,1.297-1.637,2.007-2.378.711-.71,1.483-1.359,2.316-1.976,1.575-1.205,3.305-2.131,5.189-2.78,6.547-2.378,13.835-1.235,19.332,2.996,2.069,1.575,3.829,3.582,5.126,5.837,1.019,1.698,1.73,3.52,2.193,5.435.185.679.309,1.389.401,2.1.093.525.124,1.05.124,1.575v.957c.031.155.062.247.031.34Z" style="fill:#288893;"></path>
  <path d="m287.698,224.766c-.123-1.637-.37-3.305-.741-4.91-.494-1.884-1.266-3.675-2.316-5.312-1.328-2.193-3.057-4.107-5.096-5.652-2.47-1.883-5.373-3.15-8.43-3.705-3.521-.649-7.103-.34-10.469.895-1.823.649-3.521,1.544-5.034,2.718-1.637,1.173-3.058,2.594-4.2,4.231-5.158,7.01-5.158,16.552,0,23.532.587.803,1.235,1.575,1.945,2.316.742.679,1.483,1.328,2.317,1.915,1.544,1.173,3.242,2.069,5.033,2.717,3.336,1.205,6.949,1.514,10.469.896,3.058-.556,5.93-1.822,8.431-3.706,2.038-1.544,3.768-3.459,5.096-5.651,1.019-1.637,1.791-3.428,2.316-5.312.37-1.606.617-3.243.741-4.91v1.266c0,.525-.031,1.05-.123,1.575-.062.71-.217,1.42-.371,2.1-.432,1.914-1.204,3.736-2.193,5.435-4.941,8.462-15.255,12.168-24.458,8.832-1.853-.648-3.614-1.575-5.189-2.779-.803-.587-1.575-1.266-2.316-1.977-.71-.741-1.389-1.544-2.007-2.377-5.312-7.196-5.312-16.986,0-24.181.618-.834,1.297-1.637,2.007-2.378.711-.71,1.483-1.359,2.316-1.977,1.575-1.204,3.336-2.13,5.189-2.779,3.428-1.235,7.164-1.544,10.747-.865,5.744,1.112,10.747,4.633,13.711,9.697,1.019,1.699,1.761,3.521,2.193,5.436.185.679.309,1.389.371,2.1.061.494.092.988.092,1.482v.957c0,.155,0,.278-.031.371Z" style="fill:#288893;"></path>
  <path d="m248.324,218.651c-.679-.185-1.39-.401-2.038-.648-3.305-.927-6.856-.525-9.852,1.142-1.142.649-1.76,1.143-1.822,1.143.402-.618.958-1.112,1.606-1.482,3.027-1.946,6.825-2.378,10.222-1.143.68.185,1.328.525,1.884.988Z" style="fill:#288893;"></path>
  <path d="m171.397,209.016c-2.656-1.05-5.373-1.946-8.153-2.625-2.81-.494-5.651-.772-8.523-.865.834-.247,1.667-.339,2.532-.309,4.107-.061,8.215.772,11.951,2.502.803.34,1.545.772,2.193,1.297Z" style="fill:#263238;"></path>
  <path d="m246.162,143.021c-.741-1.452-1.76-2.749-2.965-3.799-1.451-1.204-3.119-2.161-4.941-2.748-2.409-.741-4.91-1.081-7.412-.988-3.057.123-6.083.494-9.079,1.142-3.428.649-6.794,1.575-10.067,2.78-7.567,2.748-14.608,6.732-20.877,11.827-6.269,5.096-11.581,11.211-15.75,18.128-3.366,5.652-5.929,11.735-7.689,18.066-1.174,4.262-1.946,8.647-2.316,13.063-.155,1.575-.186,2.78-.217,3.614v1.266c-.031-.093-.031-.216,0-.309v-.957c0-.834,0-2.039.124-3.614.278-4.447.988-8.832,2.131-13.155,1.698-6.393,4.261-12.538,7.597-18.252,4.138-6.979,9.481-13.186,15.78-18.282,6.3-5.126,13.403-9.11,21.062-11.859,3.335-1.204,6.732-2.13,10.222-2.81,3.027-.618,6.084-.988,9.141-1.081,2.563-.092,5.127.278,7.535,1.081,1.822.618,3.521,1.606,4.972,2.903.927.803,1.699,1.76,2.317,2.81.185.371.308.772.432,1.174Z" style="fill:#263238;"></path>
  <path d="m278.31,304.596l-39.159,2.1-10.592,19.425c-.587,1.05-.217,2.347.833,2.934.309.185.68.278,1.02.278,1.883,0,4.076-.278,5.28-1.359,2.409-2.162,6.98-8.678,6.98-8.678l-2.409,14.453,11.087,12.044,2.408,2.44c.958.957,2.502.957,3.459,0,.062-.062.155-.155.216-.247,1.205-1.575,2.594-3.614,2.594-4.849,0,0,5.312-1.451,5.528-4.818.062-2.964-.092-5.96-.494-8.924,0,0,3.613-2.162,4.108-4.324l5.744,6.022,25.817,9.203,15.349-4.602,20.969-7.689s-12.755-11.118-15.411-13.032c-2.625-1.915-43.327-10.377-43.327-10.377Z" style="fill:#ffbe9d;"></path>
  <path d="m278.311,304.596s.402.062,1.143.216l3.366.68c2.965.587,7.288,1.482,12.816,2.687,5.528,1.204,12.26,2.655,19.919,4.601,2.007.463,3.984,1.081,5.898,1.853.896.587,1.761,1.235,2.564,1.945l2.532,2.1c3.459,2.872,6.918,5.93,10.654,9.142l.309.277-.309.155-17.263,6.331c-1.513.525-3.026,1.142-4.601,1.637l-4.756,1.451-9.759,2.965h-.185l-25.848-9.203h-.062l-5.744-6.053.494-.155c-.278.896-.741,1.668-1.421,2.317-.648.648-1.328,1.235-2.069,1.76l-.71.463.154-.309c.371,2.811.556,5.621.494,8.462,0,.741-.185,1.482-.556,2.131-.37.618-.864,1.173-1.451,1.606-1.143.834-2.44,1.482-3.798,1.853l.216-.278c-.062.679-.278,1.359-.618,1.945-.309.556-.648,1.112-.988,1.668-.371.525-.71,1.05-1.143,1.544-.988,1.112-2.656,1.235-3.798.309-.494-.463-.896-.896-1.359-1.328-.896-.865-1.76-1.76-2.563-2.687l-9.79-10.654-.093-.093v-.123l2.409-14.453.494.185c-1.204,1.668-2.409,3.305-3.675,4.88-.617.772-1.266,1.544-1.914,2.316-.618.803-1.359,1.482-2.224,2.038-.895.463-1.853.71-2.841.803-.494.062-.957.092-1.452.092-.524.062-1.019-.03-1.482-.277-.957-.495-1.451-1.575-1.235-2.625.123-.464.309-.896.587-1.328l.648-1.143,9.604-17.572.062-.093h.124l28.782-1.451,7.751-.371,2.008-.092h.679l-.679.061-2.008.124-7.751.463-28.72,1.637.154-.124-9.543,17.603-.648,1.143c-.247.34-.432.741-.556,1.143-.185.833.216,1.698.988,2.069.402.185.834.247,1.266.216.464,0,.927,0,1.39-.093.927-.092,1.822-.34,2.687-.741.772-.525,1.482-1.173,2.069-1.946.648-.71,1.266-1.482,1.884-2.316,1.235-1.575,2.439-3.211,3.613-4.879l.679-.957-.185,1.142c-.772,4.663-1.575,9.481-2.409,14.453l-.062-.247,9.79,10.623c.834.927,1.668,1.822,2.563,2.687.433.433.896.896,1.328,1.297.433.34.989.525,1.544.494.556-.031,1.081-.308,1.452-.71.37-.463.741-.988,1.142-1.482.34-.525.68-1.05.958-1.606.309-.525.494-1.081.556-1.668v-.216l.216-.062c1.297-.37,2.501-.988,3.582-1.76,1.081-.741,1.76-1.976,1.76-3.304.031-2.78-.123-5.59-.494-8.339v-.185l.186-.093.679-.463c.71-.494,1.39-1.05,2.007-1.667.587-.556,1.02-1.236,1.267-2.008l.123-.525.371.402c2.007,2.069,3.953,4.107,5.744,6.022l-.093-.093,25.818,9.203h-.186l9.759-2.934,4.756-1.451c1.575-.463,3.057-1.081,4.601-1.606l17.263-6.3-.092.432c-3.675-3.211-7.227-6.3-10.624-9.203l-2.532-2.1c-.803-.71-1.637-1.358-2.532-1.914-1.884-.741-3.799-1.359-5.744-1.822-7.659-2.008-14.361-3.459-19.888-4.725l-12.786-2.841-3.366-.742c-.926-.092-1.297-.216-1.297-.216Z" style="fill:#eb996e;"></path>
  <path d="m269.941,309.105c-.154.093-.34.185-.525.216l-1.544.556-5.713,1.946-8.462,2.81c-.772.247-1.482.71-2.007,1.328-.525.679-.896,1.451-1.081,2.316-.494,1.822-.865,3.644-1.143,5.497-.618,3.582-.71,7.196-.309,10.809.433,2.934,1.266,5.775,2.471,8.461.772,1.822,1.729,3.614,2.81,5.281.772,1.143,1.297,1.791,1.235,1.822-.154-.123-.278-.247-.401-.401-.371-.402-.71-.834-1.019-1.266-1.174-1.637-2.162-3.397-2.996-5.25-1.266-2.718-2.161-5.59-2.625-8.555-.432-3.644-.37-7.35.247-10.963.309-1.884.711-3.736,1.205-5.559.216-.926.617-1.76,1.204-2.501.618-.679,1.421-1.204,2.316-1.451,3.212-1.05,6.084-1.946,8.524-2.718l5.744-1.76,1.575-.464c.154-.092.309-.154.494-.154Z" style="fill:#eb996e;"></path>
  <path d="m280.195,312.718c-.525.278-1.081.494-1.637.68l-4.601,1.606-6.794,2.316c-1.328.401-2.656.864-3.922,1.451-1.266.741-2.255,1.884-2.841,3.243-1.267,2.625-2.255,5.373-2.965,8.184-.556,2.316-.68,4.694-.371,7.041.309,2.161,1.112,4.231,2.316,6.083,0,0-.123-.092-.308-.339-.278-.34-.525-.711-.772-1.081-.834-1.421-1.39-2.996-1.637-4.602-.402-2.408-.309-4.848.247-7.226.679-2.872,1.667-5.682,2.965-8.338.648-1.452,1.729-2.656,3.088-3.459,1.297-.618,2.656-1.112,4.045-1.513l6.825-2.193,4.602-1.451c.556-.216,1.173-.34,1.76-.402Z" style="fill:#eb996e;"></path>
  <path d="m278.805,321.087c-1.111,1.483-2.656,2.563-4.416,3.119-1.698.741-3.551.958-5.373.587,1.76-.247,3.489-.618,5.157-1.143,1.637-.71,3.181-1.575,4.632-2.563Z" style="fill:#eb996e;"></path>
  <path d="m303.603,336.158c-.926.309-1.915.432-2.872.401-2.378.031-4.725-.432-6.918-1.328-2.192-.864-4.2-2.192-5.867-3.86-.71-.648-1.328-1.451-1.76-2.316.092-.062.772.803,2.069,2.007,3.428,3.088,7.844,4.88,12.445,5.065,1.791.062,2.872-.062,2.903.031Z" style="fill:#eb996e;"></path>
  <path d="m259.288,307.036c0,.062-1.328.185-3.459.587-1.05.185-2.316.463-3.706.772-1.513.247-2.964.71-4.354,1.359-1.359.679-2.471,1.698-3.243,2.995-.617,1.081-1.05,2.254-1.297,3.459-.463,2.069-.586,3.459-.71,3.459-.062-.309-.062-.618,0-.958.062-.864.154-1.698.278-2.563.216-1.266.648-2.501,1.266-3.644.803-1.421,2.007-2.532,3.459-3.273,1.42-.68,2.934-1.143,4.509-1.359,1.389-.278,2.686-.494,3.767-.649,1.112-.247,2.316-.309,3.49-.185Z" style="fill:#eb996e;"></path>
  <path d="m129.953,412.653c.124.092-7.195,10.994-16.367,24.366-9.172,13.341-16.7383,24.119-16.8618,24.026-.1235-.093,7.1958-10.994,16.3678-24.366,9.172-13.341,16.707-24.119,16.861-24.026Z" style="fill:#263238;"></path>
</svg>
