<?xml version="1.0" encoding="UTF-8" standalone="no"?>
<!DOCTYPE svg PUBLIC "-//W3C//DTD SVG 1.1//EN" "http://www.w3.org/Graphics/SVG/1.1/DTD/svg11.dtd">
<svg width="100%" height="100%" viewBox="0 0 512 512" version="1.1" xmlns="http://www.w3.org/2000/svg" xmlns:xlink="http://www.w3.org/1999/xlink" xml:space="preserve" xmlns:serif="http://www.serif.com/" style="fill-rule:evenodd;clip-rule:evenodd;stroke-linejoin:round;stroke-miterlimit:2;">
    <g id="A" transform="matrix(1,0,0,1,-32,-42)">
        <g transform="matrix(1,0,0,1,-11.9893,25.6048)">
            <path d="M219.195,311.5L182.297,386.736C176.586,398.381 162.495,403.198 150.85,397.487C139.205,391.776 134.387,377.685 140.099,366.04L274.154,92.702C275.326,90.314 276.85,88.212 278.633,86.43C280.415,84.647 282.517,83.123 284.905,81.951C288.239,80.316 291.773,79.544 295.253,79.548C298.734,79.544 302.268,80.316 305.601,81.951C307.99,83.123 310.091,84.647 311.873,86.43C313.657,88.212 315.181,90.314 316.352,92.702L450.408,366.04C456.119,377.685 451.302,391.776 439.657,397.487C428.012,403.198 413.921,398.381 408.21,386.736L371.311,311.5L219.195,311.5ZM295.253,156.419L242.246,264.5L348.26,264.5L295.253,156.419Z"/>
        </g>
        <g transform="matrix(1,0,0,1,-3.92293,35.6048)">
            <path d="M418.24,284.188C417.578,282.367 416.706,278.005 417.336,276.429C428.258,249.078 501.498,243.197 503.256,290.002C503.286,290.802 503.094,291.3 503.009,291.948C478.152,480.739 226.178,544.648 113.778,392.537C4.305,244.387 125.384,14.793 331.261,51.297C339.804,52.812 436.065,69.881 408.608,127.329C397.378,150.825 359.482,160.164 351.254,147.604L317.264,78.299C305.351,54.009 269.022,54.009 257.109,78.299L222.502,148.863C176.831,175.07 149.992,228.546 157.381,281.645L123.054,351.637C117.354,363.259 120.509,388.056 138.38,396.466C156.974,405.215 177.509,392.761 183.209,381.139L195.095,356.902C245.009,406.465 329.242,407.04 379.807,357.98L391.165,381.139C396.865,392.761 416.822,405.56 435.994,396.466C453.439,388.189 457.02,363.259 451.32,351.637L418.24,284.188Z"/>
        </g>
        <g transform="matrix(2.25824,0,0,2.25824,-631.25,-236.112)">
            <path d="M477.279,177.101C491.616,177.101 503.256,188.741 503.256,203.079C503.256,217.416 491.616,229.056 477.279,229.056C462.941,229.056 451.301,217.416 451.301,203.079C451.301,188.741 462.941,177.101 477.279,177.101ZM470.636,209.721L470.636,220.171C470.636,223.837 473.613,226.813 477.279,226.813C480.945,226.813 483.921,223.837 483.921,220.171L483.921,209.721L494.371,209.721C498.037,209.721 501.013,206.745 501.013,203.079C501.013,199.413 498.037,196.436 494.371,196.436L483.921,196.436L483.921,185.986C483.921,182.32 480.945,179.344 477.279,179.344C473.613,179.344 470.636,182.32 470.636,185.986L470.636,196.436L460.186,196.436C456.52,196.436 453.544,199.413 453.544,203.079C453.544,206.745 456.52,209.721 460.186,209.721L470.636,209.721Z"/>
        </g>
    </g>
</svg>
